<svg xmlns="http://www.w3.org/2000/svg" xmlns:xlink="http://www.w3.org/1999/xlink" viewBox="0 0 216 248"><path d="M 89.074 181.452 C 89.199 180.887 89.375 180.336 89.602 179.804 C 92.165 175.037 91.704 171.146 86.583 168.417 C 78.714 161.561 73.477 152.191 71.771 141.912 C 70.248 133.72 71.907 125.26 76.41 118.252 C 77.926 115.801 80.031 113.767 82.535 112.335 C 84.436 111.179 86.704 110.78 88.889 111.215 C 91.074 111.651 93.015 112.889 94.329 114.686 C 96.616 117.769 98.138 121.349 98.77 125.131 C 100.71 134.883 101.128 144.875 100.009 154.75 C 99.534 159.293 98.705 163.804 97.85 168.308 C 97.63 169.033 97.693 169.813 98.026 170.495 C 98.357 171.176 98.935 171.708 99.642 171.983 C 108.164 176.946 117.16 176.753 124.35 168.298 C 127.669 164.071 130.373 159.397 132.383 154.415 C 132.701 153.824 132.825 153.148 132.737 152.482 C 132.648 151.817 132.352 151.197 131.89 150.709 C 131.146 149.833 130.448 148.919 129.798 147.972 C 120.343 133.769 120.248 119.379 128.076 104.647 C 129.67 101.579 132.021 98.967 134.905 97.055 C 135.755 96.336 136.768 95.833 137.856 95.589 C 138.944 95.345 140.074 95.368 141.152 95.655 C 142.23 95.943 143.222 96.486 144.044 97.239 C 144.866 97.992 145.493 98.932 145.873 99.979 C 147.098 102.58 147.757 105.409 147.807 108.281 C 147.92 113.247 147.458 118.208 146.431 123.067 C 145.074 130.96 142.959 138.703 140.116 146.19 C 139.303 147.687 139.107 149.442 139.57 151.081 C 140.034 152.722 141.118 154.118 142.595 154.974 C 145.28 157.122 148.099 159.099 151.036 160.889 C 152.861 161.965 154.946 162.521 157.063 162.494 C 159.182 162.467 161.25 161.86 163.044 160.738 C 165.509 159.262 167.757 157.453 169.724 155.361 C 179.154 145.831 185.295 133.551 187.259 120.297 C 189.758 103.496 191.132 86.614 192.802 69.687 C 193.879 61.528 194.435 53.307 194.468 45.076 C 194.455 44.696 194.51 44.316 194.631 43.955 C 194.753 43.598 194.977 43.284 195.275 43.052 C 195.573 42.82 195.933 42.68 196.31 42.648 C 196.694 42.6 197.084 42.671 197.427 42.851 C 197.77 43.03 198.05 43.311 198.229 43.654 C 198.655 44.501 198.921 45.42 199.013 46.364 C 199.164 48.228 199.182 50.101 199.066 51.968 C 197.106 73.999 195.068 95.836 192.43 117.622 C 190.831 132.556 184.379 146.552 174.061 157.476 C 171.771 160.04 169.163 162.303 166.301 164.211 C 163.718 166.053 160.649 167.098 157.475 167.218 C 154.3 167.34 151.159 166.53 148.437 164.89 C 144.833 162.73 141.427 160.256 138.258 157.496 C 137.329 156.724 136.57 156.733 135.985 157.775 C 135.398 158.816 134.559 160.476 133.893 161.855 C 131.994 165.811 129.512 169.461 126.531 172.684 C 123.321 176.283 119.002 178.713 114.253 179.59 C 109.504 180.467 104.596 179.742 100.301 177.53 C 99.946 177.416 99.639 177.15 99.274 176.978 C 96.042 175.44 95.755 175.46 94.791 178.644 C 92.993 184.285 90.79 189.789 88.199 195.112 C 85.951 200.166 83.248 205.004 80.123 209.569 C 78.762 211.628 77.207 213.554 75.479 215.319 C 73.418 217.504 70.646 218.888 67.656 219.224 C 64.666 219.561 61.652 218.829 59.149 217.159 C 55.794 215.217 52.807 212.7 50.326 209.725 C 46.066 204.545 42.726 198.675 40.453 192.371 C 36.586 181.972 34.076 171.121 32.982 160.086 C 31.32 143.555 31.721 126.885 34.175 110.459 C 35.802 98.91 38.452 87.578 40.511 76.167 C 40.833 74.287 41.097 72.416 41.419 70.535 C 41.54 69.587 41.729 68.648 41.983 67.726 C 42.079 67.254 42.357 66.838 42.758 66.569 C 43.158 66.3 43.649 66.199 44.124 66.288 C 44.507 66.348 44.859 66.534 45.124 66.816 C 45.389 67.098 45.551 67.461 45.586 67.846 C 45.736 69.17 45.722 70.507 45.543 71.827 C 44.342 78.372 43.084 85.009 41.791 91.496 C 38.417 107.165 36.569 123.124 36.271 139.151 C 36.113 151.379 37.352 163.585 39.964 175.535 C 41.356 181.696 43.309 187.716 45.797 193.524 C 48.189 199.587 51.829 205.083 56.483 209.656 C 58.245 211.422 60.304 212.866 62.566 213.922 C 64.038 214.642 65.691 214.908 67.314 214.686 C 68.936 214.464 70.455 213.764 71.676 212.676 C 74.017 210.7 75.984 208.321 77.484 205.651 C 82.246 198.045 86.133 189.927 89.074 181.452 Z M 77.186 127.106 C 76.646 129.317 76.254 131.562 76.014 133.826 C 75.481 147.206 81.18 157.83 91.162 166.279 C 92.432 167.384 93.598 166.891 93.921 165.011 C 94.57 160.888 95.251 156.748 95.604 152.586 C 96.393 144.064 95.988 135.471 94.4 127.057 C 93.954 124.027 92.906 121.118 91.316 118.498 C 89.133 115.257 86.877 114.869 83.651 117.245 C 82.615 118.081 81.675 119.025 80.843 120.063 C 79.25 122.197 78.015 124.575 77.186 127.106 Z M 138.773 135.255 C 140.417 129.949 141.641 124.52 142.433 119.021 C 143.102 115.464 143.322 111.837 143.091 108.224 C 143.031 106.129 142.537 104.069 141.641 102.173 C 141.497 101.768 141.257 101.404 140.942 101.112 C 140.627 100.819 140.245 100.607 139.83 100.494 C 139.415 100.381 138.98 100.369 138.559 100.46 C 138.14 100.55 137.748 100.741 137.417 101.016 C 135.392 102.443 133.688 104.277 132.416 106.4 C 127.586 114.045 125.918 123.265 127.761 132.121 C 128.569 137.024 130.605 141.645 133.681 145.555 C 134.298 146.339 135.106 146.263 135.409 145.409 C 136.543 142.392 137.482 139.284 138.773 135.255 Z" fill="#BDE0DA"></path></svg>