<svg xmlns="http://www.w3.org/2000/svg" xmlns:xlink="http://www.w3.org/1999/xlink" viewBox="0 0 328 218"><g id="ss2352283691_1"><path d="M 0 217.66 L 0 0 L 327.078 0 L 327.078 217.66 Z" fill="transparent"></path><path d="M 326.992 57.351 C 327.467 67.509 326.739 77.688 324.826 87.676 C 323.573 94.242 320.935 100.466 317.09 105.933 C 313.84 111.187 308.892 115.171 303.067 117.226 C 297.241 119.28 290.888 119.281 285.062 117.228 C 276.933 114.976 269.414 110.925 263.061 105.376 C 261.298 103.829 260.926 103.984 259.627 106.181 C 257.956 109.058 256.532 112.029 254.521 114.752 C 252.74 117.295 250.764 119.695 248.611 121.931 C 244.694 126.23 239.659 129.355 234.069 130.956 C 228.479 132.557 222.553 132.571 216.955 130.998 C 210.929 129.47 205.126 127.172 199.688 124.159 L 195.572 121.993 C 194.458 121.436 193.809 122.21 193.561 123.045 C 192.633 126.449 191.89 129.915 190.962 133.349 C 189.466 138.663 187.519 143.839 185.144 148.821 C 179.203 161.508 168.744 166.831 155.283 167.388 C 149.883 167.641 144.478 167.004 139.285 165.5 C 137.924 165.098 137.181 165.717 137.088 167.078 C 136.62 173.944 135.668 180.769 134.242 187.501 C 133.027 193.832 130.679 199.891 127.31 205.387 C 124.726 209.709 120.919 213.169 116.37 215.328 C 111.82 217.487 106.733 218.249 101.75 217.517 C 94.015 216.761 86.648 213.844 80.492 209.1 C 75.359 205.211 70.66 200.781 66.474 195.887 C 56.307 184.118 47.272 171.416 39.491 157.95 C 22.442 128.284 9.65 96.367 1.492 63.138 C 0.935 61.002 0.471 58.774 0.037 56.639 C -0.21 55.247 0.811 53.545 1.894 53.545 C 2.452 53.491 3.012 53.63 3.48 53.94 C 3.948 54.25 4.295 54.712 4.462 55.247 C 5.05 56.918 5.422 58.651 5.855 60.383 C 13.85 93.433 26.476 125.186 43.359 154.701 C 50.875 167.806 59.619 180.167 69.476 191.617 C 73.673 196.551 78.405 201.004 83.586 204.892 C 89.768 209.759 97.38 212.455 105.247 212.566 C 108.819 212.709 112.362 211.881 115.501 210.17 C 118.639 208.459 121.256 205.929 123.071 202.85 C 125.101 199.663 126.693 196.218 127.805 192.607 C 130.388 183.875 131.844 174.849 132.137 165.748 C 132.265 164.869 132.106 163.972 131.682 163.191 C 131.258 162.41 130.593 161.787 129.786 161.416 C 110.322 151.328 98.377 134.463 88.816 115.557 C 79.731 97.245 73.272 77.744 69.63 57.63 C 68.35 52.436 68.119 47.039 68.95 41.755 C 69.162 39.919 69.812 38.161 70.845 36.628 C 71.878 35.096 73.264 33.833 74.886 32.948 C 76.508 32.062 78.32 31.58 80.168 31.54 C 82.015 31.5 83.846 31.905 85.505 32.72 C 88.968 34.166 92.12 36.268 94.788 38.908 C 99.966 43.797 104.509 49.318 108.31 55.34 C 119.218 72.564 127.128 91.512 131.704 111.379 C 135.292 125.135 137.183 139.279 137.336 153.494 C 137.336 154.608 137.336 155.722 137.336 156.836 C 137.358 157.493 137.588 158.127 137.995 158.644 C 138.401 159.162 138.961 159.536 139.595 159.714 C 144.367 161.574 149.472 162.428 154.59 162.22 C 159.707 162.012 164.727 160.748 169.332 158.507 C 173.481 156.288 176.843 152.84 178.956 148.636 C 181.757 143.58 183.919 138.196 185.392 132.607 C 186.475 128.77 187.341 124.871 188.486 121.003 C 188.803 119.949 188.788 118.823 188.445 117.777 C 188.102 116.732 187.447 115.816 186.568 115.154 C 172.259 101.797 160.66 85.806 152.406 68.058 C 148.683 60.488 145.918 52.484 144.175 44.231 C 143.265 39.2 143.015 34.071 143.432 28.975 C 143.63 26.752 144.227 24.582 145.196 22.57 C 145.746 21.17 146.566 19.891 147.611 18.808 C 148.655 17.725 149.902 16.859 151.282 16.258 C 152.661 15.657 154.146 15.334 155.65 15.308 C 157.154 15.281 158.649 15.551 160.049 16.103 C 164.055 17.509 167.678 19.829 170.632 22.879 C 177.704 29.969 183.152 38.511 186.599 47.913 C 194.447 67.356 197.493 88.405 195.48 109.275 C 195.08 111.173 195.372 113.152 196.303 114.854 C 197.233 116.556 198.741 117.87 200.554 118.558 C 207.462 122.58 215.078 125.238 222.989 126.387 C 226.642 126.79 230.34 126.386 233.821 125.205 C 237.301 124.023 240.48 122.092 243.133 119.548 C 248.338 114.648 252.541 108.784 255.511 102.282 C 256.056 101.333 256.266 100.229 256.109 99.146 C 255.952 98.063 255.436 97.064 254.645 96.309 C 243.598 82.756 237.533 66.882 233.603 50.079 C 232.811 46.38 232.571 42.585 232.891 38.816 C 232.98 37.274 233.325 35.757 233.912 34.329 C 234.329 33.053 235.028 31.887 235.958 30.919 C 236.888 29.951 238.025 29.205 239.283 28.738 C 240.542 28.271 241.89 28.094 243.226 28.221 C 244.563 28.348 245.853 28.775 247.001 29.471 C 249.527 30.878 251.713 32.822 253.407 35.164 C 257.429 40.221 260.454 45.997 262.319 52.183 C 265.048 60.41 266.468 69.014 266.527 77.681 C 266.593 83.229 265.789 88.752 264.144 94.051 C 263.602 95.286 263.507 96.672 263.873 97.97 C 264.24 99.268 265.047 100.399 266.156 101.168 C 272.382 106.598 279.804 110.479 287.817 112.493 C 292.228 113.816 296.947 113.699 301.287 112.157 C 305.628 110.616 309.364 107.731 311.953 103.922 C 316.995 96.834 320.031 88.517 320.741 79.847 C 321.85 70.813 322.046 61.69 321.329 52.617 C 319.998 37.825 319.039 22.972 317.894 8.15 C 317.894 6.17 317.213 4.22 317.059 2.24 C 317.064 1.792 317.206 1.356 317.466 0.991 C 317.726 0.626 318.091 0.349 318.513 0.197 C 319.023 -0.031 319.599 -0.062 320.13 0.109 C 320.662 0.281 321.111 0.643 321.391 1.126 C 322.566 2.973 323.168 5.126 323.124 7.315 C 323.804 13.937 324.361 20.559 324.856 27.212 C 325.568 37.114 326.249 46.799 326.992 57.351 Z M 132.044 147.089 L 131.859 147.089 C 131.642 143.994 131.611 140.9 131.24 137.805 C 128.698 117.303 123.13 97.292 114.716 78.424 C 110.129 68.076 104.243 58.353 97.202 49.491 C 94.602 46.17 91.598 43.187 88.259 40.61 C 86.534 39.218 84.56 38.168 82.441 37.516 C 81.622 37.185 80.74 37.038 79.858 37.087 C 78.976 37.136 78.116 37.379 77.339 37.799 C 76.561 38.219 75.886 38.805 75.362 39.515 C 74.837 40.226 74.475 41.044 74.303 41.91 C 73.604 44.022 73.362 46.258 73.591 48.47 C 74.025 51.781 74.272 55.123 74.953 58.372 C 78.873 78.186 85.451 97.38 94.509 115.433 C 99.441 125.155 105.689 134.151 113.076 142.168 C 117.245 146.776 122.048 150.766 127.341 154.02 C 131.147 156.31 131.983 155.877 132.075 151.699 C 132.014 150.152 132.014 148.512 132.014 147.027 Z M 190.838 94.7 C 190.86 88.015 190.175 81.345 188.796 74.803 C 186.747 63.923 183.347 53.341 178.677 43.302 C 175.778 37.042 171.726 31.384 166.733 26.624 C 164.413 24.2 161.533 22.383 158.347 21.332 C 157.519 20.998 156.631 20.84 155.739 20.869 C 154.847 20.898 153.97 21.113 153.166 21.501 C 152.362 21.888 151.648 22.439 151.069 23.119 C 150.491 23.799 150.06 24.592 149.806 25.448 C 148.644 28.815 148.222 32.393 148.569 35.938 C 148.912 41.935 150.142 47.847 152.22 53.483 C 159.386 73.146 170.471 91.148 184.804 106.397 C 185.844 107.54 186.994 108.576 188.239 109.492 C 189.229 110.203 189.941 109.492 190.126 108.594 C 190.658 103.963 190.834 99.297 190.652 94.638 Z M 260.988 75.794 C 260.793 67.586 259.224 59.47 256.346 51.781 C 254.636 46.963 252.148 42.458 248.982 38.444 C 247.698 36.609 245.96 35.138 243.938 34.174 C 243.49 33.957 243.003 33.831 242.506 33.806 C 242.009 33.78 241.512 33.855 241.045 34.025 C 240.577 34.195 240.148 34.458 239.784 34.797 C 239.42 35.136 239.128 35.545 238.925 36 C 238.094 37.83 237.753 39.846 237.935 41.848 C 238.061 44.73 238.423 47.597 239.018 50.42 C 241.28 60.153 244.687 69.584 249.167 78.517 C 251.418 83.104 254.179 87.422 257.399 91.389 C 257.522 91.561 257.692 91.693 257.888 91.771 C 258.085 91.849 258.299 91.87 258.506 91.831 C 258.714 91.793 258.906 91.695 259.061 91.551 C 259.215 91.407 259.326 91.222 259.379 91.018 C 260.701 86.057 261.244 80.921 260.988 75.794 Z" fill="#FF6241"></path></g></svg>