<svg xmlns="http://www.w3.org/2000/svg" xmlns:xlink="http://www.w3.org/1999/xlink" viewBox="0 0 276 317"><path d="M 113.817 231.936 C 113.976 231.215 114.202 230.51 114.491 229.83 C 117.767 223.737 117.177 218.763 110.634 215.275 C 100.579 206.512 93.888 194.534 91.707 181.395 C 89.762 170.924 91.881 160.111 97.634 151.153 C 99.572 148.02 102.262 145.42 105.461 143.589 C 107.891 142.112 110.789 141.602 113.58 142.158 C 116.372 142.715 118.853 144.298 120.532 146.594 C 123.454 150.535 125.398 155.111 126.206 159.946 C 128.685 172.411 129.219 185.183 127.789 197.806 C 127.182 203.612 126.123 209.379 125.031 215.136 C 124.75 216.062 124.83 217.06 125.255 217.931 C 125.679 218.801 126.417 219.481 127.32 219.833 C 138.209 226.177 149.705 225.93 158.892 215.123 C 163.133 209.72 166.588 203.746 169.156 197.377 C 169.563 196.622 169.721 195.758 169.608 194.907 C 169.495 194.057 169.116 193.264 168.526 192.64 C 167.576 191.52 166.683 190.352 165.853 189.141 C 153.771 170.987 153.65 152.593 163.653 133.762 C 165.69 129.841 168.693 126.502 172.379 124.058 C 173.465 123.139 174.759 122.496 176.149 122.184 C 177.539 121.873 178.984 121.902 180.361 122.269 C 181.738 122.637 183.006 123.331 184.056 124.294 C 185.107 125.256 185.908 126.458 186.393 127.796 C 187.959 131.12 188.801 134.737 188.864 138.408 C 189.009 144.755 188.419 151.097 187.106 157.308 C 185.372 167.396 182.67 177.294 179.037 186.864 C 177.998 188.777 177.748 191.02 178.34 193.116 C 178.932 195.213 180.318 196.997 182.205 198.092 C 185.636 200.838 189.238 203.364 192.99 205.652 C 195.322 207.028 197.986 207.738 200.692 207.704 C 203.399 207.67 206.042 206.893 208.334 205.459 C 211.484 203.573 214.356 201.26 216.87 198.587 C 228.919 186.405 236.766 170.708 239.276 153.767 C 242.468 132.291 244.224 110.712 246.358 89.076 C 247.734 78.646 248.445 68.139 248.487 57.617 C 248.47 57.131 248.541 56.646 248.695 56.184 C 248.851 55.728 249.137 55.327 249.518 55.03 C 249.899 54.734 250.359 54.554 250.84 54.514 C 251.331 54.453 251.83 54.543 252.268 54.773 C 252.706 55.002 253.064 55.361 253.292 55.799 C 253.837 56.883 254.177 58.057 254.294 59.263 C 254.487 61.647 254.51 64.041 254.362 66.427 C 251.858 94.587 249.254 122.5 245.883 150.347 C 243.839 169.436 235.596 187.327 222.411 201.29 C 219.485 204.567 216.153 207.46 212.496 209.899 C 209.195 212.253 205.274 213.589 201.218 213.743 C 197.161 213.898 193.147 212.863 189.67 210.767 C 185.064 208.006 180.712 204.843 176.663 201.316 C 175.476 200.329 174.506 200.34 173.758 201.672 C 173.009 203.003 171.936 205.124 171.086 206.887 C 168.659 211.944 165.488 216.61 161.678 220.729 C 157.577 225.329 152.058 228.435 145.99 229.556 C 139.922 230.678 133.651 229.751 128.163 226.924 C 127.709 226.778 127.316 226.438 126.85 226.218 C 122.72 224.252 122.354 224.278 121.122 228.347 C 118.825 235.558 116.01 242.593 112.699 249.397 C 109.826 255.857 106.372 262.042 102.379 267.876 C 100.64 270.509 98.653 272.97 96.446 275.226 C 93.812 278.019 90.269 279.788 86.449 280.218 C 82.629 280.649 78.777 279.713 75.579 277.578 C 71.292 275.096 67.476 271.879 64.306 268.076 C 58.861 261.455 54.594 253.952 51.69 245.894 C 46.749 232.601 43.541 218.731 42.143 204.626 C 40.02 183.496 40.532 162.188 43.668 141.191 C 45.747 126.429 49.133 111.944 51.764 97.359 C 52.176 94.956 52.513 92.564 52.925 90.16 C 53.08 88.947 53.32 87.748 53.645 86.569 C 53.767 85.966 54.123 85.434 54.635 85.09 C 55.147 84.747 55.774 84.618 56.381 84.732 C 56.87 84.808 57.32 85.045 57.658 85.406 C 57.997 85.767 58.205 86.23 58.248 86.722 C 58.441 88.415 58.422 90.124 58.194 91.811 C 56.66 100.177 55.052 108.661 53.399 116.952 C 49.089 136.981 46.727 157.38 46.346 177.867 C 46.145 193.496 47.728 209.099 51.065 224.374 C 52.844 232.248 55.339 239.944 58.519 247.367 C 61.575 255.117 66.226 262.142 72.172 267.988 C 74.424 270.245 77.055 272.091 79.946 273.441 C 81.826 274.361 83.938 274.701 86.012 274.417 C 88.085 274.133 90.026 273.239 91.587 271.848 C 94.578 269.322 97.091 266.281 99.007 262.869 C 105.092 253.146 110.059 242.77 113.817 231.936 Z M 98.627 162.47 C 97.936 165.296 97.435 168.166 97.128 171.06 C 96.448 188.162 103.73 201.743 116.485 212.542 C 118.108 213.954 119.598 213.325 120.01 210.921 C 120.839 205.651 121.71 200.359 122.161 195.04 C 123.169 184.146 122.651 173.162 120.622 162.407 C 120.052 158.535 118.713 154.816 116.681 151.467 C 113.892 147.324 111.009 146.829 106.887 149.866 C 105.564 150.934 104.362 152.141 103.3 153.467 C 101.264 156.195 99.686 159.235 98.627 162.47 Z M 177.321 172.887 C 179.422 166.104 180.986 159.165 181.998 152.136 C 182.852 147.589 183.134 142.953 182.839 138.335 C 182.762 135.657 182.131 133.024 180.986 130.6 C 180.802 130.083 180.495 129.617 180.092 129.244 C 179.69 128.87 179.202 128.599 178.672 128.454 C 178.142 128.309 177.585 128.294 177.048 128.41 C 176.512 128.526 176.011 128.77 175.589 129.121 C 173.001 130.945 170.824 133.289 169.198 136.003 C 163.027 145.775 160.895 157.56 163.25 168.88 C 164.282 175.147 166.884 181.054 170.815 186.052 C 171.603 187.054 172.636 186.957 173.022 185.866 C 174.471 182.009 175.672 178.037 177.321 172.887 Z" fill="#F6C944"></path></svg>