<svg width="180" height="120" viewBox="0 0 180 120" fill="none" xmlns="http://www.w3.org/2000/svg">
<path d="M136.397 83.1005C135.739 83.6304 135.455 84.8549 135.2 85.6133C134.788 86.9017 134.103 87.9708 132.815 88.5922C131.745 89.0948 130.393 89.2867 129.552 90.2552C128.739 91.169 128.639 92.7681 128.831 93.956C129.022 95.0891 129.205 96.3409 128.456 97.3187C127.926 98.0131 127.012 98.9543 127.295 99.8955C127.451 100.398 127.771 100.681 127.825 101.248C127.889 101.723 127.798 102.226 127.889 102.692C128.081 103.569 128.639 104.483 129.552 104.611C130.649 104.802 131.718 104.985 132.595 104.135C133.564 103.222 133.6 101.814 133.948 100.59C134.14 99.8955 134.322 99.2376 134.514 98.4883C134.706 97.7664 134.925 97.0719 135.327 96.4506C136.177 95.1348 136.296 93.691 136.927 92.3112C137.804 90.3923 138.151 88.6744 138.151 86.5636C138.151 85.7778 137.932 85.2113 137.676 84.4894C137.466 83.8772 137.118 82.5339 136.397 83.1005Z" fill="#B8C2CC"/>
<path d="M138.533 42.0084C138.058 42.2552 137.839 42.7577 137.373 43.041C136.87 43.2877 136.368 43.3243 135.838 43.3243C133.828 43.3243 132.037 43.9182 130.09 44.0735C129.588 44.1375 129.341 44.2654 128.957 43.9822C128.647 43.7629 128.299 43.3243 128.08 43.041C127.486 42.1912 127.331 41.0673 126.764 40.1535C126.289 39.4042 125.914 38.5818 125.32 37.9239C124.754 37.33 123.849 36.8274 123.182 36.3522C122.68 36.005 122.214 35.6943 121.985 35.1004C121.483 33.6566 121.738 32.4048 120.258 31.5549C119.756 31.2443 119.006 30.8331 118.723 30.2665C118.44 29.636 118.75 28.9141 118.659 28.2288C118.568 27.443 118.029 26.8125 117.809 26.0632C117.617 25.3413 117.462 24.7108 117.023 24.1169C116.649 23.6417 116.238 23.2031 115.863 22.7005C115.141 21.7594 114.794 20.5989 114.355 19.5024C113.944 18.4972 114.008 17.5286 113.259 16.6423C112.537 15.7925 111.504 14.5406 111.221 13.4075C111.066 12.905 111.13 12.311 111.751 12.375C112.345 12.439 112.5 13.0055 112.692 13.4441C112.975 14.0106 113.222 14.6046 113.542 15.1437C113.953 15.893 114.108 15.6189 114.702 15.427C114.922 15.363 115.114 15.363 115.269 15.427C115.269 15.427 115.36 14.5497 115.991 13.6999C116.621 12.8501 116.905 12.3841 116.183 11.8176C115.461 11.2876 114.109 9.65195 114.081 8.6194C114.081 8.99404 114.054 9.34128 113.706 9.65196C113.615 9.74334 113.515 9.84385 113.396 9.93522C112.299 10.6571 111.477 10.2185 110.316 9.96264C109.841 9.87126 109.403 9.65196 108.937 9.65196C108.343 9.65196 107.931 10.1545 107.301 10.3099C105.921 10.6571 104.541 9.74334 103.189 9.46008C102.495 9.30474 101.809 9.46006 101.115 9.33214C100.393 9.20421 99.6984 8.63767 99.0131 8.3544C97.9166 7.9432 94.7458 6.6548 93.896 8.04372C93.4574 8.7656 94.1793 9.70677 93.832 10.4652C93.0827 12.0643 90.2501 10.2459 89.1535 10.118C87.8012 9.99006 87.5819 8.70163 86.5767 7.92493C86.2021 7.64166 85.7269 7.26703 85.2244 7.1391C84.5664 7.01117 83.7166 7.1391 83.0313 7.1391C82.4008 7.1391 81.9987 7.16652 81.4962 6.89239C81.0576 6.64568 80.4636 6.51774 80.1164 6.17051C79.2392 5.29329 80.2717 4.41608 80.6829 3.65765C81.2129 2.68906 80.025 2.52457 80.4362 1.61994C80.5641 1.30926 81.0667 0.898075 80.8108 0.48688C80.619 0.176199 80.0616 0.267558 79.7418 0.240145C79.3306 0.176181 78.892 0.11224 78.4899 0.14879C78.0878 0.185341 77.704 0.395497 77.3294 0.395497C76.4522 0.395497 75.6663 -0.107078 74.7526 0.0208496C73.656 0.17619 72.523 0.39551 71.3899 0.55085C70.2568 0.70619 69.1969 0.898084 68.1278 1.18135C66.62 1.59255 65.487 2.53371 63.9884 2.81697C62.7365 3.06369 61.4481 3.51144 60.1232 3.44747C58.9901 3.38351 58.0855 2.66163 56.9798 3.35609C56.2854 3.76729 56.3493 4.10539 56.0112 4.73589C55.664 5.30242 55.0974 5.76843 54.5949 6.17963C53.3978 7.0934 52.4567 7.97063 52.146 9.50575C51.9906 10.255 51.5155 10.8581 51.0769 11.4795C50.6383 12.046 50.3824 12.7679 49.9438 13.3344C49.5326 13.8644 48.9113 14.2482 48.4361 14.6868C47.9335 15.1894 47.303 15.5001 46.773 15.9387C46.3984 16.2494 46.0786 16.6606 45.6765 16.9438C45.3933 17.1631 45.0186 17.2271 44.7079 17.419C44.05 17.8576 43.5748 18.7713 43.5748 19.5572C43.5748 20.937 42.7251 21.6954 41.9118 22.7005C41.5006 23.2031 41.3818 23.6143 41.2813 24.2357C41.1534 25.0215 40.5869 25.4327 40.3675 26.118C40.0569 26.9678 40.3949 27.5618 40.7787 28.3111C41.126 28.969 41.2539 29.5355 41.3727 30.2848C41.5006 31.0706 41.7199 31.756 41.6834 32.5784C41.656 33.5195 41.4641 34.3694 40.9889 35.1552C40.6143 35.8497 40.2031 36.6264 40.0477 37.4122C39.8924 38.1341 40.1391 38.3899 40.4589 39.0113C40.7696 39.6692 40.7056 40.2632 40.5868 40.9576C40.395 41.9262 40.7787 42.2734 41.4641 42.9313C41.8113 43.242 42.1859 43.5253 42.5332 43.8086C42.9444 44.1558 43.1911 44.5944 43.5657 44.9416C44.0957 45.4716 44.5709 45.7914 44.9821 46.4493C45.4207 47.1712 45.174 47.9845 45.7679 48.6424C46.3344 49.2363 47.1477 49.5196 47.8422 49.8943C48.5366 50.2415 48.8108 50.6435 49.2219 51.274C49.6331 51.868 50.0717 52.2792 50.6017 52.7817C51.7988 53.9148 52.612 55.386 54.5218 55.0113C55.2162 54.8834 56.0295 54.3808 56.6234 54.0427C57.3453 53.6681 57.9118 53.3483 58.7616 53.3209C59.9861 53.2569 61.0826 54.1341 62.3071 53.8874C63.6594 53.6407 65.0667 53.0102 66.2911 52.3523C67.7623 51.603 69.3065 50.9085 71.061 51.3471C72.5961 51.7218 72.1301 53.8234 73.4459 54.5453C74.1678 54.9565 74.8257 55.1119 75.6389 55.1393C76.2329 55.1393 77.0187 55.0479 77.5578 55.2946C78.3711 55.6692 78.627 56.4916 78.6909 57.2683C78.7549 58.0816 78.9742 58.9314 78.9742 59.7812C78.9742 60.5031 78.6269 61.1975 78.4442 61.8829C78.2889 62.5408 78.2523 63.2353 78.0056 63.8292C77.7863 64.3592 77.567 64.7978 77.6949 65.4009C77.7863 65.9035 78.1335 66.4974 78.3894 66.9086C78.7 67.4386 79.2026 67.7218 79.6138 68.133C80.0524 68.5716 80.4636 69.0468 80.8383 69.5768C81.6515 70.8012 82.7572 72.3364 83.1318 73.7801C83.3237 74.5659 83.1958 75.3792 83.4425 76.165C83.6344 76.7955 83.9725 77.3255 84.3197 77.8921C85.0416 79.0251 85.069 79.9024 84.6944 81.2182C84.5664 81.7482 84.3471 81.9401 83.9999 82.4152C83.5887 82.9817 83.1867 83.5757 82.7755 84.1696C82.2089 84.9555 82.3368 85.8601 82.2455 86.7739C82.1175 88.0257 81.3957 89.1953 81.3957 90.4746C81.3683 92.1377 82.4648 93.4535 83.3146 94.8059C83.8172 95.5552 84.3471 96.3136 84.9776 96.9441C85.5076 97.538 85.9828 97.9767 86.0741 98.799C86.2935 100.27 85.5442 101.623 85.5716 103.066C85.5716 103.788 85.9828 104.263 86.1381 104.949C86.4854 106.365 86.924 107.708 87.7098 108.997C88.587 110.413 89.7475 111.637 90.4054 113.2C90.78 114.141 92.0685 115.43 91.1912 116.435C90.7526 116.965 90.1221 117.248 90.5333 118.034C90.7801 118.472 91.3466 118.692 91.7304 118.911C92.1416 119.13 92.3883 119.441 92.7355 119.724C93.6767 120.446 94.7732 119.569 95.7144 119.158C97.1855 118.527 98.9126 119.404 100.457 119.002C100.987 118.874 101.489 118.591 102.056 118.436C103.372 118.089 104.788 117.431 105.537 116.243C105.912 115.649 106.04 114.954 106.323 114.36C106.634 113.767 107.173 113.355 107.639 112.853C108.516 111.884 109.777 111.318 110.554 110.212C110.993 109.618 111.276 108.704 111.468 107.982C111.66 107.352 111.943 106.785 112.098 106.164C112.445 104.748 112.601 103.587 113.953 102.929C115.114 102.399 116.21 102.079 116.247 100.636C116.311 99.2194 115.397 97.6842 115.872 96.3044C116.219 95.3359 117.188 94.55 117.818 93.7276C118.449 92.9418 118.951 92.2565 119.792 91.6899C121.081 90.8127 121.866 89.9355 122.771 88.6745C123.118 88.2359 123.52 87.8887 123.804 87.4226C124.087 86.8927 124.242 86.2896 124.334 85.6956C124.525 84.4986 124.361 83.5026 124.306 82.333C124.279 81.7664 124.434 81.0811 124.215 80.542C123.968 79.948 123.146 79.8201 122.835 79.1622C122.643 78.7876 122.524 78.0931 122.46 77.6545C122.305 76.4574 122.46 75.4614 122.616 74.3284C122.771 73.2958 122.049 72.3546 122.204 71.2855C122.36 70.253 123.118 69.3118 123.584 68.398C124.114 67.3929 124.653 66.3603 125.156 65.3552C125.567 64.478 126.006 63.7561 126.755 63.1621C127.413 62.6322 128.107 62.221 128.674 61.5905C129.707 60.4574 130.465 59.2055 131.689 58.3283C133.042 57.3871 134.33 56.6927 135.326 55.3494C135.737 54.7829 136.075 54.2164 136.459 53.6224C136.651 53.3117 136.962 52.9645 137.09 52.6173C137.218 52.27 137.181 51.8954 137.282 51.5482C137.629 50.5704 138.195 49.7298 138.661 48.8525C139.475 47.3448 139.603 45.6178 139.886 43.9274C140.005 43.0776 139.913 41.2226 138.533 42.0084Z" fill="#B8C2CC"/>
</svg>
