<svg width="180" height="120" viewBox="0 0 180 120" fill="none" xmlns="http://www.w3.org/2000/svg">
<path d="M142.298 54.6978C141.797 54.7267 141.304 54.5337 140.841 54.5626C140.243 54.5916 140.107 55.2575 139.644 55.5567C139.412 55.7594 138.882 56.0201 139.084 56.3868C139.181 56.5895 139.943 56.6185 140.146 56.5895C140.812 56.5219 141.439 56.0587 142.173 55.9622C142.935 55.8656 143.505 55.9621 144.2 56.2324C145.126 56.6281 145.831 56.2614 146.555 55.6726C147.153 55.1707 147.945 54.939 148.418 54.3117C149.315 53.1824 148.688 51.2616 148.582 49.9007C148.553 49.2733 148.35 48.9741 147.983 48.5108C147.549 47.951 147.317 47.3815 146.651 47.1209C146.381 46.9858 145.426 46.619 145.155 46.7541C144.76 47.0533 145.155 47.8159 145.223 48.1827C145.319 48.7425 145.821 49.0803 145.956 49.6401C146.227 50.7694 145.59 51.8022 144.625 52.2944C143.997 52.6226 143.823 53.2596 143.63 53.887C143.428 54.495 142.926 54.6302 142.298 54.6978Z" fill="#B8C2CC"/>
<path d="M141.67 35.278C141.738 35.1139 141.641 34.8822 141.574 34.7181C141.371 34.3224 140.908 34.1197 140.58 33.7915C140.281 33.5213 140.02 33.2607 139.682 32.9905C139.248 32.6623 138.881 32.392 138.62 31.8998C138.418 31.5041 138.225 31.3014 137.925 31.0022C137.655 30.674 137.462 30.2686 137.124 29.9694C136.989 29.8729 136.825 29.7666 136.661 29.7377C136.594 29.7087 136.526 29.6702 136.429 29.6412C136.4 29.6122 136.227 29.5447 136.265 29.6702C136.333 29.8053 136.4 29.9018 136.468 30.037C136.565 30.3072 136.632 30.5967 136.7 30.8959C136.729 31.0986 136.796 31.2627 136.864 31.4558C137.192 32.2858 137.993 32.6526 138.659 33.2124C139.46 33.8109 139.856 34.5058 140.281 35.4324C140.483 35.9343 140.715 36.2914 141.014 36.7258C141.284 37.1891 141.381 37.691 141.641 38.1157C141.873 38.4824 142.568 39.6407 143.099 39.3801C144.228 38.7527 141.941 36.7547 141.641 36.33C141.506 36.1659 141.207 35.7316 141.313 35.5289C141.371 35.442 141.603 35.4421 141.67 35.278Z" fill="#B8C2CC"/>
<path d="M141.466 57.9504C141.833 58.3847 142.268 58.182 142.596 57.8538C142.76 57.6897 143.127 57.4581 143.155 57.1878C143.155 56.2902 140.405 56.7535 141.466 57.9504Z" fill="#B8C2CC"/>
<path d="M144.393 45.6635C145.223 46.1944 145.02 45.1326 145.156 44.6983C145.426 44.0034 146.121 45.0651 146.449 45.2292C147.25 45.6635 147.279 44.6984 147.713 44.3316C148.148 44.0034 149.171 44.3316 148.804 43.405C148.708 43.0768 148.302 42.8066 148.042 42.5749C147.771 42.3433 147.607 42.3047 147.24 42.2757C146.777 42.2757 146.507 42.2467 146.111 42.044C145.947 41.9475 145.715 41.8799 145.551 41.7448C145.387 41.6772 145.32 41.5132 145.156 41.4167C144.885 41.214 144.065 40.7893 143.727 40.9147C143.129 41.1753 144.055 42.2757 144.161 42.6714C144.364 43.3663 144.065 43.3374 143.833 43.8972C143.621 44.3702 143.891 45.4318 144.393 45.6635Z" fill="#B8C2CC"/>
<path d="M138.051 58.1146C137.588 58.713 138.186 58.9157 138.582 59.2728C139.084 59.6686 139.248 60.4021 139.779 60.7303C140.078 60.933 140.377 60.8944 140.638 60.6627C141.072 60.3345 140.908 59.9678 141.005 59.5045C141.072 59.1087 141.14 58.8095 140.773 58.5393C140.609 58.4041 140.406 58.4042 140.242 58.269C140.078 58.1339 139.943 57.9409 139.779 57.7671C139.615 57.603 139.248 57.3038 138.978 57.3328C138.746 57.381 138.177 57.9119 138.051 58.1146Z" fill="#B8C2CC"/>
<path d="M136.758 91.5394C137.086 91.4718 136.961 91.3077 137.057 91.0374C137.26 90.5355 137.521 89.9082 137.492 89.3773C137.463 88.2481 136.797 89.9082 136.633 90.2074C136.468 90.4776 136.005 90.9409 136.131 91.2691C136.189 91.4718 136.555 91.5683 136.758 91.5394Z" fill="#B8C2CC"/>
<path d="M135.359 90.4101C135.822 90.3425 135.89 90.1109 136.054 89.7441C136.218 89.3773 136.353 89.1167 136.054 88.7499C134.924 87.4566 134.065 90.5066 135.359 90.4101Z" fill="#B8C2CC"/>
<path d="M125.638 116.297C125.339 116.161 125.242 115.93 124.875 115.862C124.673 115.833 124.016 115.795 124.373 115.466C124.644 115.235 125.107 115.602 125.3 115.438C125.561 115.273 125.271 114.878 125.097 114.81C124.566 114.54 123.804 114.839 123.273 114.878C122.578 114.907 122.047 114.318 121.285 114.482C120.957 114.55 120.686 114.781 120.32 114.849C119.991 114.878 119.692 114.82 119.354 114.781C119.055 114.752 118.756 114.781 118.524 114.617C118.293 114.453 118.196 114.154 117.993 113.951C117.694 113.652 117.192 113.787 116.797 113.787C115.996 113.787 115.831 114.086 115.339 114.714C114.577 115.611 115.571 115.38 116.266 115.573C116.565 115.669 116.768 116.007 117.125 116.104C117.926 116.335 118.92 115.939 119.712 116.268C120.339 116.538 120.908 116.798 121.507 117.098C122.067 117.426 122.839 117.464 123.428 117.368C124.229 117.233 124.885 117.3 125.648 117.436C126.043 117.503 127.211 117.532 127.173 117.001C127.163 116.364 126.034 116.528 125.638 116.297Z" fill="#B8C2CC"/>
<path d="M136.92 94.6569C137.123 94.5218 137.383 94.3288 137.654 94.4253C138.155 94.5894 137.982 95.1878 138.088 95.5835C138.155 95.9503 138.416 96.0854 138.648 96.2784C139.082 96.6452 139.777 97.871 139.941 96.7128C139.97 96.346 140.038 95.9793 140.105 95.6511C140.24 95.1878 140.404 95.2167 140.704 94.9175C141.398 94.2902 140.607 93.5566 140.404 92.8617C140.269 92.4659 140.404 91.5973 139.902 91.4332C139.236 91.2305 139.072 92.5914 138.744 92.9582C137.885 93.7207 137.982 92.63 137.017 92.8906C136.515 93.0258 135.221 94.1164 135.588 94.9175C135.887 95.516 136.582 94.8596 136.92 94.6569Z" fill="#B8C2CC"/>
<path d="M118.235 76.8298C117.607 77.0615 117.077 77.6599 117.202 78.3934C117.27 78.7216 117.472 78.6251 117.704 78.7602C117.936 78.8953 118.032 79.127 118.331 79.1559C118.602 79.1849 118.862 78.9243 118.997 78.7216C119.161 78.4899 119.161 78.2197 119.268 77.9881C119.364 77.7564 119.499 77.5537 119.567 77.3221C119.721 76.6368 118.631 76.7043 118.235 76.8298Z" fill="#B8C2CC"/>
<path d="M82.9473 92.0027C82.6191 92.63 82.6191 93.5277 82.6191 94.2613C82.6191 94.5605 82.6481 94.7921 82.7157 95.0913C82.8122 95.5932 82.7157 96.2882 83.0824 96.6839C83.2851 96.8866 83.7098 96.9831 83.9801 96.8866C84.2503 96.819 84.4434 96.5198 84.7136 96.3557C85.2734 96.0276 85.6113 95.6608 85.6788 94.9948C85.7753 94.1358 85.119 93.7015 84.6847 93.0741C84.3758 92.6011 83.4492 91.0085 82.9473 92.0027Z" fill="#B8C2CC"/>
<path d="M115.446 112.146C115.446 111.48 115.311 110.814 115.282 110.158C115.253 109.492 115.311 109.096 114.915 108.594C114.683 108.295 114.413 108.199 114.153 107.928C113.882 107.697 113.853 107.494 113.689 107.233C113.554 106.963 113.255 106.905 113.091 106.674C112.888 106.403 112.888 106.046 112.821 105.708C112.657 104.907 112.29 104.55 111.73 104.019C111.296 103.585 110.697 103.257 110.205 102.861C109.703 102.427 109.307 101.935 108.709 101.597C108.41 101.433 108.207 101.298 108.043 100.998C107.84 100.603 107.715 100.564 107.377 100.303C107.078 100.072 106.914 99.7435 106.643 99.5022C106.412 99.2706 106.113 99.1741 105.881 98.9714C105.321 98.4695 105.35 97.5429 104.452 97.3788C104.086 97.3112 103.719 97.3113 103.362 97.2823C103.091 97.2147 102.802 97.0217 102.532 97.0507C102.232 97.0796 102.232 97.2823 102.232 97.5815C102.232 98.1799 102.561 98.5467 103.034 98.9135C103.632 99.3478 104.124 99.7436 104.53 100.371C104.665 100.603 104.8 100.873 104.925 101.104C105.022 101.336 105.06 101.664 105.196 101.867C105.36 102.099 105.697 102.166 105.929 102.33C106.161 102.533 106.363 102.697 106.489 102.958C106.759 103.556 107.02 104.183 107.348 104.753C107.618 105.284 108.082 105.718 108.313 106.317C108.516 106.876 108.776 107.706 109.143 108.179C109.539 108.71 110.108 109.212 110.572 109.675C111.103 110.206 111.469 110.805 111.962 111.403C112.164 111.635 112.396 111.77 112.56 112.069C112.724 112.368 112.83 112.668 113.023 112.928C113.187 113.16 113.323 113.324 113.622 113.391C114.017 113.488 114.085 113.324 114.384 113.227C114.683 113.16 114.915 113.295 115.185 113.092C115.475 112.851 115.446 112.513 115.446 112.146Z" fill="#B8C2CC"/>
<path d="M128.119 116.963L128.09 116.934C127.762 116.934 127.762 117.262 127.82 117.494C127.955 117.822 128.09 117.822 128.419 117.725C128.718 117.658 128.882 117.561 128.785 117.165C128.718 116.827 128.361 116.76 128.119 116.963Z" fill="#B8C2CC"/>
<path d="M129.653 106.442C129.856 106.21 129.982 105.979 130.155 105.747C130.319 105.544 130.455 105.38 130.522 105.149C130.551 104.985 130.551 104.821 130.551 104.647C130.551 104.512 130.387 104.212 130.416 104.116C130.484 103.749 130.744 104.048 131.043 104.048C131.343 104.019 131.507 103.817 131.574 103.546C131.738 102.919 131.304 102.514 131.072 101.954C130.802 101.355 130.677 100.728 130.609 100.091C130.58 99.8594 130.445 99.4926 130.58 99.261C130.744 99.0293 131.082 99.1258 131.314 98.9618C131.642 98.7301 131.478 98.595 131.41 98.3344C131.275 98.0062 131.275 97.9386 131.642 97.8711C131.97 97.8035 132.105 97.736 132.038 97.3402C132.009 97.0121 131.835 96.8769 131.536 96.7804C131.005 96.6163 130.406 96.3847 130.04 95.9793C129.605 95.5449 129.142 94.7824 128.543 95.4484C127.878 96.182 127.578 97.2437 126.787 97.8711C126.555 98.0738 126.188 98.1413 125.957 98.2668C125.194 98.6336 125.098 99.0679 124.692 99.7629C124.364 100.323 124.133 100.825 123.496 101.056C122.897 101.288 122.405 101.22 122.135 101.886C121.97 102.282 121.671 102.784 121.237 102.851C120.735 102.919 120.243 102.784 119.741 102.88C119.471 102.948 119.142 103.016 119.075 103.276C118.978 103.778 119.577 104.203 119.77 104.57C119.905 104.801 119.905 105.1 119.905 105.4C119.934 105.93 119.702 106.625 120.001 107.06C120.204 107.291 120.397 107.427 120.503 107.726C120.6 108.025 120.6 108.459 120.639 108.759C120.667 109.492 120.841 109.955 121.729 109.791C122.057 109.724 122.357 109.56 122.694 109.724C122.994 109.888 123.196 110.255 123.66 110.187C123.988 110.158 124.258 109.791 124.625 109.724C124.953 109.695 125.252 109.753 125.484 109.888C126.015 110.216 126.314 110.814 127.009 110.785C127.569 110.756 128.206 110.255 128.534 109.791C129.094 108.932 128.698 107.871 129.132 106.973C129.248 106.77 129.48 106.635 129.653 106.442Z" fill="#B8C2CC"/>
<path d="M131.71 80.2176C131.807 80.6133 131.942 80.9511 131.778 81.3469C131.643 81.7426 131.276 82.0128 131.18 82.4086C130.909 83.3352 131.575 83.7985 132.077 84.4355C132.347 84.7347 132.579 84.7058 132.907 84.8988C133.371 85.169 133.438 85.4007 133.998 85.4296C134.558 85.4586 134.625 85.5261 134.963 85.9605C135.359 86.4624 135.523 86.3273 136.054 86.4624C136.45 86.5975 136.517 86.9643 136.951 87.0608C137.386 87.196 137.753 87.196 137.917 86.8292C138.419 85.9026 137.386 85.3042 136.652 85.2366C135.793 85.169 135.031 85.1691 134.258 84.6768C133.757 84.3487 133.399 83.1132 133.593 82.5148C133.689 82.2156 133.959 81.8874 134.094 81.5206C134.259 81.0863 134.297 80.7871 134.258 80.3238C134.249 80.3141 134.239 80.3238 134.23 80.3238C134.664 79.069 131.218 77.8529 131.71 80.2176Z" fill="#B8C2CC"/>
<path d="M139.441 88.6149C139.412 88.3446 139.238 87.9875 139.045 87.8524C138.746 87.6207 137.684 87.1864 137.52 87.7172C137.356 88.2191 138.379 88.5473 138.35 89.0782C138.35 89.7056 137.79 90.3716 138.485 90.8349C138.948 91.1341 139.045 90.7673 139.016 90.3329C139.016 89.9662 138.852 89.7731 139.016 89.4739C139.209 89.1457 139.441 89.0492 139.441 88.6149Z" fill="#B8C2CC"/>
<path d="M144.654 103.913C144.625 103.517 143.892 103.846 143.689 103.681C143.457 103.479 143.322 103.122 143.554 102.88C143.718 102.745 144.355 102.446 144.085 102.147C143.853 101.915 143.457 102.012 143.226 102.176C142.926 102.407 142.695 102.774 142.724 103.141C142.753 103.44 142.82 103.701 142.82 104C142.791 104.328 142.492 104.463 142.425 104.763C142.357 104.927 142.425 105.129 142.425 105.264C142.425 105.66 142.521 106.065 142.695 106.423C142.791 106.558 142.898 106.751 143.091 106.654C143.361 106.519 143.187 106.288 143.158 106.094C143.091 105.795 143.158 105.496 143.361 105.264C143.457 105.129 143.592 104.994 143.689 104.898C143.786 104.801 143.853 104.695 143.959 104.598C144.094 104.454 144.683 104.183 144.654 103.913Z" fill="#B8C2CC"/>
<path d="M141.632 109.791C141.304 109.888 140.406 110.293 141.072 110.65C141.275 110.747 141.506 110.65 141.699 110.679C141.931 110.708 142.095 110.843 142.365 110.843C142.761 110.843 143.292 110.477 143.031 110.042C142.761 109.656 142.027 109.695 141.632 109.791Z" fill="#B8C2CC"/>
<path d="M158.793 108.565C158.494 108.469 158.06 108.43 157.799 108.266C157.597 108.102 157.433 107.938 157.172 107.832C156.641 107.668 155.975 107.369 155.415 107.436C154.981 107.465 154.518 107.899 154.257 108.237C154.122 108.401 154.054 108.633 153.89 108.768C153.755 108.932 153.524 109.096 153.359 109.231C153.128 109.396 152.761 109.733 152.462 109.695C152.066 109.627 151.468 109.193 151.265 108.865C151.197 108.73 151.197 108.565 151.168 108.43C151.139 108.035 151.197 107.697 151.033 107.301C150.802 106.674 150.406 105.844 149.605 105.844C149.209 105.844 148.871 105.979 148.476 106.143C148.273 106.239 148.147 106.346 147.916 106.346C147.684 106.375 147.452 106.442 147.221 106.51C147.018 106.539 146.13 106.838 146.661 107.108C147.028 107.311 147.559 107.176 147.887 107.542C148.022 107.706 148.089 107.909 148.282 108.044C148.379 108.112 148.514 108.141 148.611 108.208C148.746 108.276 148.813 108.372 148.939 108.411C149.17 108.479 150.271 108.179 150.165 108.643C150.136 108.807 149.73 108.913 149.566 108.971C149.296 109.067 149.132 109.106 148.871 109.067C148.775 109.067 148.437 109.038 148.369 109.135C148.167 109.338 148.398 109.666 148.533 109.801C148.698 109.965 148.833 110.071 148.862 110.303C148.929 110.467 148.958 110.631 149.093 110.766C149.296 111.065 149.46 111.393 149.894 111.365C149.991 111.036 149.827 110.303 150.29 110.139C150.522 110.071 150.753 110.206 150.956 110.341C151.091 110.409 151.159 110.573 151.284 110.708C151.381 110.805 151.516 110.872 151.651 111.007C151.921 111.307 152.153 111.606 152.481 111.77C152.713 111.866 153.012 111.905 153.282 111.905C153.446 111.934 153.552 111.973 153.717 112.04C153.852 112.108 154.016 112.108 154.18 112.137C154.547 112.204 154.807 112.436 155.01 112.697C155.106 112.832 155.213 112.996 155.309 113.092C155.406 113.227 155.512 113.295 155.608 113.391C156.004 113.787 156.043 114.55 156.043 115.081C156.043 115.38 155.946 115.476 155.743 115.679C155.541 115.882 155.444 116.046 155.348 116.306C155.28 116.538 155.077 116.77 155.049 117.001C154.981 117.329 155.512 117.368 155.743 117.329C156.072 117.329 156.207 117.194 156.477 117.03C156.68 116.934 156.844 116.731 157.075 116.731C157.346 116.76 157.703 116.828 157.905 117.001C158.07 117.098 158.205 117.301 158.34 117.436C158.504 117.571 158.475 117.764 158.61 117.899C158.813 118.131 159.17 118.227 159.508 118.266C159.537 118.266 159.575 118.266 159.604 118.295V108.865C159.575 108.836 159.537 108.836 159.508 108.836C159.257 108.768 159.025 108.662 158.793 108.565Z" fill="#B8C2CC"/>
<path d="M150.763 113.807C150.56 114.009 150 114.569 150.531 114.801C150.734 114.897 150.927 114.801 151.062 114.666C151.197 114.53 151.226 114.366 151.361 114.202C151.496 114 151.525 113.971 151.525 113.671C151.689 113.671 151.593 113.469 151.525 113.401C151.129 113.083 150.994 113.614 150.763 113.807Z" fill="#B8C2CC"/>
<path d="M164.102 13.8989C163.735 13.5997 163.503 13.2039 163.04 13.0398C162.509 12.8757 161.978 12.6731 161.447 12.4801C160.887 12.2774 160.289 12.2774 159.72 12.1133C158.494 11.7465 157.268 11.3797 156.004 11.1481C154.971 10.984 154.382 10.1539 153.311 10.2215C152.085 10.289 151.149 9.85471 149.961 9.75819C148.765 9.66167 147.51 9.25625 146.381 8.99565C145.251 8.764 144.122 8.69648 143.031 8.49378C142.298 8.35866 140.213 8.09802 139.615 8.52271C139.885 8.986 140.541 9.15009 140.908 9.55548C139.682 9.55548 138.389 9.69059 137.221 9.42034C136.092 9.12112 135.261 8.91846 134.132 9.02463C132.935 9.15976 131.941 8.69644 130.783 8.39723C129.953 8.19454 129.258 7.59613 128.389 7.56717C127.588 7.53822 126.7 7.40308 125.938 7.43203C125.137 7.46099 124.442 7.46098 123.679 7.36446C122.019 7.09421 120.291 7.13286 118.737 6.63096C117.647 6.26418 116.517 5.86842 115.388 5.93599C114.423 5.96494 113.728 6.16766 112.801 5.96497C112.039 5.82984 111.305 5.5692 110.543 5.50164C110.147 5.47268 108.352 5.20243 108.12 5.56921C107.917 5.86842 108.719 6.60199 108.883 6.8626C108.149 7.13285 107.058 6.99771 106.296 7.02666C105.697 7.05562 105.003 7.09421 104.433 6.89152C103.902 6.72744 103.468 6.26418 102.869 6.56339C102.175 6.89156 102.638 7.29694 102.57 7.89537C101.644 7.96293 101.441 7.79884 100.814 7.16181C98.6902 5.1735 95.9297 4.73912 93.1499 4.71017C93.0534 6.16762 89.4339 5.00942 88.7679 4.87429C87.2043 4.64265 85.6118 4.41095 84.0578 4.34339C83.2953 4.34339 82.5327 4.24692 81.7702 4.27588C80.9112 4.34344 80.0812 4.80673 79.2511 4.87429C77.8902 5.00942 79.2511 3.44579 79.7819 3.05006C80.1101 2.7798 81.4035 2.24892 81.5096 1.75667C81.5096 1.6891 81.5772 1.62158 81.5772 1.55401C80.1873 0.752898 78.2569 1.41887 76.7319 1.41887C74.9753 1.41887 73.7109 0.328194 71.9832 0.0289831C70.8539 -0.1351 71.4812 0.424683 70.8539 1.02311C70.2554 1.55396 68.5953 1.32235 67.8038 1.41887C67.0027 1.48643 66.3464 1.92077 65.6128 2.01729C64.6863 2.15242 63.7886 2.31651 62.891 2.45164C62.3312 2.54816 61.6266 2.51918 61.1633 2.91491C60.6035 3.44577 60.8351 4.24692 60.0726 4.57508C58.9433 5.07699 57.0902 4.6426 55.8547 4.71017C56.318 5.1059 59.0399 6.10006 58.0167 6.76604C57.5534 7.06525 57.1577 6.79504 56.7234 6.56339C55.8933 6.12905 52.9109 5.10593 52.2063 6.12904C51.8105 6.63094 52.2738 7.3259 52.602 7.65407C53.5286 8.48414 55.0536 8.68681 55.2273 10.1732C55.2949 10.6365 55.0632 11.37 55.0246 11.9009C54.9281 12.8951 54.1656 13.1267 53.2004 13.2619C52.4669 13.3294 51.6368 13.5321 51.8105 12.4317C51.9746 11.5052 53.3355 10.7716 53.1715 9.80644C53.0749 9.20802 52.1097 8.67716 51.6754 8.24282C51.0094 7.61544 50.8164 7.04598 50.411 6.25452C49.4844 4.45925 48.0849 4.92254 46.5309 5.58853C45.9325 5.82018 45.1024 6.28346 45.5657 7.08457C45.7684 7.45135 46.4247 7.68299 46.7239 7.9822C47.0907 8.34898 47.3224 8.81229 47.6216 9.20802C47.9208 9.60375 48.7508 10.4048 48.1524 10.8681C47.9883 11.0033 46.8591 10.8681 46.6564 10.8006C46.2606 10.5689 45.8939 9.87397 45.5947 9.53615C44.6681 8.60957 43.6353 8.67714 42.3419 8.7061C42.0427 8.73505 41.3478 8.67713 41.1161 8.87017C40.6528 9.3045 41.7821 9.79679 41.7821 10.2311C41.7532 11.428 39.9869 10.2311 39.5622 10.0284C38.2688 9.4686 37.1685 10.3566 35.8462 10.2601C34.5528 10.1925 33.4235 9.52655 32.1591 10.125C31.0009 10.6848 29.8716 12.982 28.5106 11.5149C28.0087 10.955 27.9508 10.5207 27.1208 11.1867C26.5223 11.65 26.2231 12.3449 25.7598 12.8758C25.2 13.6383 24.4954 13.6093 23.6654 13.9085C22.8643 14.2077 22.9028 15.1729 22.1403 15.5011C22.0052 15.5686 21.8701 15.6362 21.7446 15.6362C21.7736 16.9296 23.9646 17.528 23.9067 19.4873C23.704 24.5643 24.9973 23.7053 26.561 28.1838C28.0184 28.483 25.9336 36.2818 26.4644 37.4111C27.0629 38.5403 26.4644 40.5287 26.1363 41.7545C26.3004 41.9571 26.4644 42.1502 26.7347 42.2564C27.3331 42.488 28.0667 42.2853 28.5975 42.6521C28.7616 42.7872 28.8678 42.9513 29.0608 43.0478C29.2635 43.183 29.5241 43.2119 29.7558 43.3471C30.055 43.6173 30.3542 43.9744 30.5183 44.3412C30.8175 44.901 31.3483 46.0979 30.721 46.5612C30.4893 46.7253 29.8619 46.9279 29.5627 47.0245C29.0608 47.2271 28.6651 46.9955 28.1342 46.8217C27.1015 46.5225 26.1749 46.0882 25.1807 45.7311C24.2541 45.3643 23.2889 45.5284 22.3913 45.8276C21.6578 46.0593 20.7987 46.6287 20.0652 46.7252C19.6984 46.7542 19.3027 46.6577 18.9359 46.7252C18.1734 46.9279 17.7391 47.758 16.9766 48.0186C16.243 48.2888 15.3454 47.9896 14.6504 48.3178C14.3802 48.4529 13.8879 48.6846 14.023 49.0128C14.1582 49.312 14.6504 49.3795 14.7855 49.7752C14.8821 50.1034 14.718 50.5764 14.718 50.8659C14.7855 51.3292 15.0848 51.4643 15.3164 51.8311C15.5867 52.1979 15.6446 52.7963 15.9824 53.0955C16.3105 53.4237 16.7449 53.2307 17.1406 53.1921C17.739 53.1631 17.9707 53.3561 18.4726 53.5202C19.1675 53.7905 19.5343 53.25 20.1617 53.0569C21.2234 52.6902 21.3199 53.8194 22.2562 53.887C22.8546 53.9159 23.3179 53.5202 23.8488 53.4237C24.148 53.3562 24.4761 53.4527 24.7753 53.4913C25.1035 53.5202 25.4413 53.4237 25.7695 53.4237C27.0629 53.4913 25.9336 55.2479 25.7405 55.8174C25.5378 56.2807 25.7116 56.744 25.6054 57.2073C25.5089 57.7092 25.0456 57.8733 24.8429 58.269C24.3796 59.0991 25.0456 59.8326 24.3796 60.489C24.312 60.5855 24.2155 60.653 24.1094 60.7206C23.7136 60.9909 23.3758 61.0488 23.0476 61.0874C22.8835 61.9464 22.7195 62.8151 22.7195 62.8151C23.2503 62.8826 23.3469 63.3749 23.5206 63.7417C23.7522 64.205 23.9839 64.7358 24.2541 65.1991C24.6209 65.8265 24.7174 65.5949 25.2483 65.4308C25.4799 65.3343 25.6826 65.3632 25.8467 65.4597C26.3776 65.7589 26.6478 66.6566 26.9374 67.1199C27.2366 67.5542 27.6323 67.9789 27.864 68.4808C28.0956 68.8765 28.1632 69.3109 28.3659 69.7066C28.6361 70.3726 28.8678 70.9324 29.3986 71.4343C29.833 71.8686 30.4603 72.1003 30.8561 72.5925C31.3194 73.2199 31.2229 74.3202 31.4159 75.0827C31.6186 75.9128 32.6417 76.2796 33.1726 76.907C33.7034 77.573 34.2343 78.2003 34.5045 79.0304C34.6396 79.3585 34.6397 79.7929 34.8327 80.121C35.0354 80.4203 35.4311 80.5554 35.6917 80.787C36.2226 81.3179 36.155 82.0515 36.1936 82.7464C36.2226 83.3062 36.1936 84.2038 36.4639 84.7057C36.599 85.0049 36.9947 85.2366 37.0913 85.5359C37.3229 86.2694 36.792 86.9257 37.9213 87.0995C38.5197 87.196 38.7514 86.9643 39.2533 86.7327C39.7842 86.4624 40.3826 86.4624 40.8845 86.1729C41.3188 85.9026 41.5505 85.4393 41.9173 85.1401C42.95 84.2135 44.475 84.1459 45.6719 83.5765C46.2027 83.3448 46.7046 83.0746 47.1969 82.7753C47.7953 82.4086 47.998 82.2155 48.3262 81.6171C48.886 80.5843 50.0828 80.4589 51.0191 79.9956C51.5499 79.7253 52.0132 79.3972 52.5151 79.1366C52.9784 78.9049 53.6444 78.8084 54.0787 78.4706C54.5806 78.1038 54.5131 77.4089 54.5131 76.8491C54.5131 76.3472 54.6096 75.99 54.8798 75.5557C55.4107 74.6967 56.2408 74.1272 56.0091 73.0655C55.7099 71.9072 54.7447 71.5404 53.6541 71.4343C53.1232 71.4053 52.9591 71.2991 52.7274 70.7683C52.5248 70.2664 52.1001 70.1023 51.8298 69.6101C51.5982 69.1758 51.5306 68.8089 50.9322 68.7124C50.3048 68.5773 49.8415 69.0792 49.5037 69.5714C48.8377 70.6621 48.1717 70.5656 46.9845 70.6332C46.6178 70.6332 46.1545 70.7972 45.9904 70.4015C45.8263 70.0058 46.1545 69.5425 46.1931 69.1757C46.2606 68.0465 44.9287 67.7183 44.1662 67.2839C43.3071 66.7531 42.9018 65.894 42.3033 65.1605C41.84 64.5621 41.174 63.7031 41.4732 62.902C41.9751 61.6762 43.8959 61.9754 44.6584 62.6703C45.556 63.5004 44.9287 64.9578 45.8552 65.6913C46.3185 66.0581 46.9845 66.3574 47.5443 66.5215C47.9401 66.618 48.3455 66.6855 48.7026 66.9172C49.0018 67.1198 49.2334 67.5156 49.5326 67.6797C50.5944 68.2395 51.6271 66.8496 52.7564 67.6121C53.1232 67.8824 53.0267 68.114 53.2583 68.4711C53.5286 68.8379 54.1173 68.7993 54.4841 68.973C55.015 69.1757 55.3142 69.639 55.9416 69.5714C56.4724 69.5039 56.9357 69.3398 57.4376 69.5425C58.8951 70.0444 59.9954 69.6776 61.4528 69.3398C62.0513 69.2047 63.6149 68.4808 64.1747 68.8765C64.3774 69.0792 64.2712 69.5715 64.609 69.9093C64.9758 70.2375 65.4391 70.5077 65.9024 70.7394C66.7035 71.1351 67.3309 71.7335 68.1224 72.2354C68.5857 72.5346 68.5856 72.6022 68.354 73.0655C68.1513 73.4998 68.0837 73.7315 68.4505 74.1272C68.7787 74.5229 69.2517 74.7256 69.5798 75.0924C69.9466 75.4592 70.4099 75.7873 70.9407 75.6233C71.5391 75.4206 71.6067 74.6291 72.099 74.2913C72.7263 73.828 73.1607 74.5229 73.2572 75.0924C73.3923 75.6908 73.1607 76.2892 73.0931 76.8877C72.9966 77.6888 72.7939 78.3451 72.9966 79.1752C73.2282 80.1404 73.7302 81.067 74.2224 81.897C74.8884 82.9588 75.8825 83.9915 76.2493 85.1787C76.4134 85.7771 76.481 86.3369 76.7512 86.9064C77.0118 87.4662 77.311 88.0647 77.5137 88.6631C77.9094 89.7924 78.0156 90.9506 78.4403 92.0799C78.6044 92.4756 78.7106 92.9775 79.1739 93.1416C79.6758 93.3056 80.3321 93.1126 80.7665 92.8134C81.2298 92.4466 81.4614 91.8868 81.6641 91.356C81.8668 90.8927 82.2625 90.497 82.3976 89.9951C82.5617 89.4352 82.4652 88.7306 82.4652 88.1708C82.4652 87.5724 82.6679 87.1767 82.832 86.6072C83.0347 85.9798 83.0636 85.4103 82.9961 84.783C82.9671 84.3486 82.7258 83.7212 82.832 83.3255C83.0636 82.0321 84.5211 80.8739 85.5828 80.2755C86.1426 79.9473 86.6445 79.5806 87.0788 79.0787C87.4746 78.6443 87.7448 78.1134 88.1695 77.7177C88.6038 77.2834 89.0285 76.8587 89.5015 76.4244C89.6366 76.2893 89.9358 76.0576 90.0323 75.8935C90.1288 75.6618 90.1289 75.3916 90.264 75.16C90.6308 74.3589 91.3547 73.9341 92.1847 73.6639C92.6866 73.4998 93.2754 73.4998 93.8063 73.3937C94.3371 73.2971 94.7715 72.9304 95.3023 73.2296C95.5726 73.3647 95.6305 73.5964 95.8042 73.828C96.0359 74.2237 96.171 74.7546 96.4702 75.1213C97.2713 75.9804 98.5261 76.4533 98.8929 77.6791C99.0569 78.2776 98.9604 78.8374 99.0569 79.4358C99.1921 79.9667 99.4527 80.4299 99.5202 80.9994C99.5878 81.3951 99.5202 81.926 99.8484 82.2252C100.177 82.5244 100.91 82.5244 101.344 82.5244C101.904 82.5533 102.638 82.4279 102.908 81.926C103.043 81.6557 102.976 80.8643 103.275 80.7291C103.642 80.594 103.806 81.231 103.873 81.4627C104.076 82.1962 103.941 82.9587 104.144 83.6826C104.472 84.7154 105.475 85.4104 105.601 86.501C105.765 87.6979 106.132 88.8947 106.296 90.053C106.431 91.0857 105.736 91.9737 105.697 93.0065C105.669 94.0682 106.624 94.3384 107.261 95.0334C107.86 95.6993 108.294 96.3653 108.188 97.2533C108.091 98.2185 108.622 98.5177 109.182 99.174C109.713 99.84 109.684 100.632 110.08 101.336C110.446 101.964 111.508 102.794 112.174 103.093C112.473 103.228 113.033 103.46 113.371 103.392C113.902 103.257 113.738 102.629 113.506 102.263C113.236 101.867 112.946 101.597 112.879 101.104C112.782 100.709 112.85 100.342 112.879 99.9076C112.879 98.8169 112.145 98.1509 111.489 97.3209C111.189 96.9251 110.929 96.4233 110.591 96.0275C110.292 95.7283 109.925 95.5642 109.597 95.3616C108.738 94.8307 108.738 94.0971 108.207 93.3057C107.773 92.6397 106.643 92.5432 106.817 91.6166C106.952 90.7865 107.416 90.1881 107.251 89.2904C107.087 88.4604 107.387 87.5628 107.58 86.7327C107.676 86.337 107.85 86.0377 108.313 85.9991C108.873 85.9702 108.912 86.53 109.307 86.8003C109.635 87.0029 110.108 87.0319 110.398 87.2345C110.861 87.5627 110.726 88.2674 110.9 88.7307C111.199 89.6283 111.991 90.1591 112.888 90.2943C113.352 90.3618 113.718 90.2653 114.017 90.7286C114.249 91.1243 114.114 91.5876 114.114 92.0605C114.085 92.4949 114.249 92.8907 114.741 92.5914C115.205 92.3212 115.407 91.4621 115.639 90.9988C115.967 90.3329 116.633 90.2653 117.299 90.0047C118.1 89.7055 118.757 88.943 119.094 88.1805C119.461 87.3504 119.529 86.5203 119.326 85.6613C119.191 85.1304 119.056 84.4644 118.66 84.0397C118.226 83.5765 117.762 83.1421 117.396 82.6113C117.096 82.148 116.768 81.7812 116.43 81.3855C115.803 80.6519 115.002 80.0535 114.404 79.291C113.969 78.7601 113.844 78.4899 113.844 77.7949C113.815 77.2641 113.612 76.5016 113.873 76.0383C114.104 75.5364 114.703 75.2758 115.07 74.909C115.369 74.6098 115.571 74.2816 116.035 74.243C116.836 74.1755 117.898 74.3105 118.255 75.102C118.457 75.6039 118.525 76.2603 119.181 75.797C119.712 75.4013 119.278 74.9669 119.548 74.5712C119.751 74.243 120.706 74.1755 121.073 74.1079C121.469 74.0114 122 74.0403 122.366 73.8376C122.598 73.7025 122.733 73.4033 122.994 73.2392C123.197 73.1041 123.39 73.0751 123.621 73.0075C124.181 72.8049 124.654 72.5732 125.079 72.1775C125.445 71.8493 125.774 71.7817 126.208 71.5501C126.806 71.2798 127.135 70.8551 127.636 70.4594C128.698 69.5618 129.065 68.3649 129.557 67.1391C129.992 66.0774 130.416 64.813 130.387 63.6548C130.358 62.8923 129.528 62.6606 129.354 61.9657C129.258 61.5313 129.625 61.2322 129.586 60.8364C129.557 60.4696 129.258 59.9774 129.055 59.6782C128.785 59.35 128.524 59.0798 128.225 58.7516C127.463 57.8926 127.366 56.7247 126.237 56.1938C125.87 56.0297 125.079 55.8656 124.876 55.4989C124.606 55.0645 124.905 54.6012 125.204 54.302C125.571 53.9739 125.938 53.6071 126.295 53.2692C126.594 52.999 127.096 52.9411 127.221 52.5743C127.55 51.6091 125.6 51.8408 125.127 51.7153C124.529 51.5802 124.567 51.6478 124.065 52.0435C123.602 52.3717 123.235 52.4392 122.975 51.8408C122.704 51.2134 122.975 51.0397 122.144 50.8467C121.749 50.7501 121.15 50.7115 120.88 50.3447C120.378 49.6787 121.083 49.5147 121.575 49.3795C122.241 49.1768 122.608 48.9838 122.801 48.2503C122.965 47.5843 123.003 47.3237 123.766 47.2175C124.461 47.1499 124.895 47.314 124.799 48.0765C124.731 48.6073 124.529 49.1672 124.895 49.6402C125.223 50.1035 125.822 49.6691 126.16 49.2734C126.488 48.8776 126.623 48.3082 127.25 48.4143C127.521 48.4433 127.646 48.646 127.849 48.7425C128.119 48.839 128.409 48.8101 128.679 48.839C130.136 49.1093 128.746 50.6343 129.77 51.0976C130.233 51.3292 130.764 51.0686 131.159 51.3293C131.758 51.6574 131.555 52.0917 131.623 52.6226C131.69 53.1245 132.086 53.5492 132.289 54.0125C132.52 54.5723 132.791 54.9777 132.916 55.5761C133.051 56.2421 133.051 56.4351 133.843 56.3772C134.576 56.3483 134.538 55.6823 135.107 55.4506C135.609 55.219 135.937 55.3541 136.072 54.6881C136.169 54.1862 136.072 53.694 135.841 53.2596C135.512 52.6323 134.875 52.1979 134.451 51.6381C134.123 51.2037 133.823 50.7404 133.321 50.4412C132.858 50.142 132.192 50.171 131.864 49.6112C131.594 49.1093 131.7 48.5494 132.067 48.1537C132.366 47.8255 132.993 47.8545 133.225 47.4588C133.36 47.2561 133.225 47.0244 133.292 46.8314C133.321 46.5998 133.457 46.5032 133.563 46.3006C133.765 45.7407 133.235 43.8779 134.296 43.849C134.596 43.849 134.798 44.1771 135.03 44.3122C135.3 44.5149 135.233 44.5149 135.59 44.5439C135.956 44.5728 136.622 44.6404 136.815 44.2157C136.883 44.0516 136.786 43.82 136.815 43.6559C136.844 43.2891 137.047 42.9899 137.182 42.6617C137.452 41.9958 137.481 41.3298 137.617 40.6348C137.781 39.9013 138.176 39.409 138.176 38.6079C138.176 38.0481 138.147 37.4497 138.205 36.8802C138.273 36.4459 138.408 36.0212 138.302 35.5869C138.167 34.9595 137.568 34.5251 137.211 33.9943C136.516 32.9615 136.285 31.8033 135.522 30.8091C134.76 29.815 133.563 29.3806 132.472 28.9173C131.912 28.6857 131.574 28.6857 131.015 28.8884C130.513 29.0525 130.049 29.2841 129.557 28.9173C129.19 28.6857 129.393 28.29 129.055 28.0197C128.727 27.7495 128.061 27.7881 127.694 27.7881C126.073 27.7881 127.994 26.1955 128.158 25.5681C128.457 24.5064 128.689 23.0103 129.422 22.1513C129.885 21.6204 130.715 21.524 131.381 21.5915C132.076 21.688 132.713 21.6205 133.408 21.5915C134.769 21.524 136.429 21.1571 137.723 21.659C138.157 21.8231 138.418 22.161 138.813 22.2864C139.315 22.4505 139.808 22.1899 140.271 22.1513C140.734 22.0837 141.661 22.2865 141.767 21.5915C141.863 21.0607 140.84 20.7614 140.541 20.3946C139.711 19.468 141.101 18.5994 142.066 18.7731C143.031 18.9372 143.562 19.7383 144.489 19.8349C145.184 19.9024 147.211 19.5356 146.352 18.4063C146.216 18.2036 145.618 17.7404 145.956 17.4122C146.352 17.0165 146.95 17.972 147.047 18.2712C147.143 18.638 147.076 19.1303 147.076 19.5356C147.076 20.163 147.104 20.4333 146.709 20.8676C146.41 21.2344 146.313 21.6011 146.477 22.0258C146.612 22.3926 147.008 22.827 146.709 23.1551C146.41 23.5219 145.782 23.3192 145.618 23.8886C145.386 24.6897 145.985 25.8094 146.448 26.4078C146.911 27.0352 147.375 27.3344 148.079 27.6336C148.707 27.9039 149.411 28.3672 149.942 28.8305C150.444 29.2938 150.743 29.9212 151.236 30.3941C152.037 31.1566 152.761 32.1218 153.726 32.7202C154.16 32.9905 154.758 33.087 154.855 32.3245C154.923 31.7261 154.121 31.2628 153.89 30.7319C153.726 30.3362 153.726 29.8729 153.755 29.4385C154.083 29.4096 154.652 29.4385 154.72 29.0428C154.749 28.5795 153.986 28.5119 153.89 28.1162C153.793 27.6143 154.45 27.6529 154.517 27.151C154.585 26.6201 154.121 26.1182 153.784 25.7611C153.388 25.3268 152.954 24.9311 152.587 24.4678C152.191 23.9369 151.853 23.9659 151.226 23.8694C150.328 23.7342 150.097 23.1358 149.894 22.3058C149.797 21.8039 149.498 20.9159 149.894 20.5491C150.492 20.0182 150.695 20.6842 151.12 20.9159C151.786 21.2151 151.979 20.7132 152.452 20.4815C152.915 20.2788 153.784 20.4815 154.247 20.6167C154.98 20.8483 155.145 20.6166 155.811 20.1823C156.081 20.0182 156.11 20.0472 156.274 19.748C156.477 19.4487 156.602 19.1495 156.805 18.8889C157.133 18.4256 157.471 17.9913 158.069 18.0299C158.6 18.0299 160.994 18.4256 160.694 17.335C160.559 16.8331 159.768 16.7366 159.362 16.6401C158.764 16.5049 158.301 16.1092 157.77 15.781C157.471 15.6169 156.612 15.4142 156.477 15.0475C156.245 14.3139 158.04 14.0147 158.571 14.1498C158.899 14.2174 159.169 14.4104 159.536 14.478C159.999 14.5455 160.096 14.7772 160.463 14.9413C160.791 15.144 161.129 15.0088 161.496 14.9702C161.862 14.9413 162.123 15.0378 162.422 15.0378C162.75 15.0667 162.953 15.0088 163.223 15.1054C163.494 15.1729 163.851 15.4336 164.121 15.4336C164.517 15.4625 165.086 15.1633 165.086 14.7676C164.999 14.2367 164.439 14.1402 164.102 13.8989Z" fill="#B8C2CC"/>
<path d="M140.638 116.992C140.011 116.895 139.441 117.194 138.949 117.551C138.389 117.986 137.723 118.015 137.125 118.285C136.922 118.381 136.594 118.488 136.497 118.681C136.401 118.874 136.468 119.308 136.468 119.54C136.497 120.003 136.536 120.042 136.999 119.974C137.298 119.945 137.501 119.839 137.762 119.646C137.993 119.443 138.157 119.115 138.428 118.912C138.659 118.748 138.959 118.681 139.19 118.517C139.46 118.353 139.75 118.188 140.088 118.121C140.416 118.024 140.754 118.15 141.082 117.986C141.96 117.629 141.265 117.098 140.638 116.992Z" fill="#B8C2CC"/>
<path d="M145.85 109.357C145.714 109.26 145.521 109.222 145.348 109.26C145.116 109.26 144.952 109.289 144.749 109.26C144.382 109.193 143.659 109.231 143.823 109.82C143.89 110.187 144.585 109.984 144.884 110.052C145.213 110.148 145.512 110.322 145.879 110.322C146.043 110.322 146.313 110.351 146.38 110.187C146.448 110.052 146.351 109.791 146.284 109.724C146.216 109.598 145.985 109.463 145.85 109.357Z" fill="#B8C2CC"/>
<path d="M130.079 70.6621C130.011 71.0965 129.644 71.7528 129.914 72.1196C130.117 72.3512 130.378 72.4188 130.542 72.718C130.677 72.9883 131.169 74.3395 131.575 73.6156C131.739 73.3164 131.71 72.718 131.739 72.3898C131.768 72.023 131.806 71.6949 131.835 71.3281C131.932 70.7683 132.134 70.0637 131.604 69.6004C130.745 68.8669 130.146 69.9672 130.079 70.6621Z" fill="#B8C2CC"/>
<path d="M132.801 86.9547C132.937 87.1863 133.796 88.1515 133.892 87.418C133.96 87.1863 133.689 86.5879 133.593 86.4238C132.975 85.5938 132.338 86.1246 132.801 86.9547Z" fill="#B8C2CC"/>
<path d="M131.44 117.127C131.141 116.963 130.746 117.262 130.475 117.329C130.147 117.397 129.877 117.358 129.578 117.465C129.414 117.532 129.182 117.532 129.182 117.735C129.153 118.034 129.414 118.102 129.616 118.102C130.012 118.102 130.446 117.831 130.842 117.773C131.083 117.725 132.039 117.455 131.44 117.127Z" fill="#B8C2CC"/>
<path d="M135.195 117.098C134.732 117.001 134.269 117.069 133.805 117.069C133.574 117.069 131.884 117.069 132.512 117.735C132.676 117.937 133.072 117.87 133.274 117.802C133.506 117.735 133.709 117.6 133.94 117.532C134.211 117.503 134.5 117.532 134.77 117.532C134.906 117.532 135.504 117.629 135.572 117.532C135.794 117.291 135.359 117.127 135.195 117.098Z" fill="#B8C2CC"/>
<path d="M137.22 111.654C137.586 110.988 136.718 110.525 136.418 110.062C136.254 109.791 136.148 109.502 135.955 109.231C135.724 108.903 135.656 108.73 135.656 108.372C135.627 107.977 135.656 107.745 136.023 107.513C136.322 107.349 136.65 107.185 136.988 107.05C137.422 106.886 138.214 106.085 137.258 106.085C136.93 106.056 136.698 106.249 136.361 106.317C136.09 106.345 135.801 106.317 135.559 106.413C135.029 106.577 134.43 107.34 133.928 106.683C133.658 106.317 133.426 105.593 133.697 105.158C133.793 104.956 134.131 104.724 134.295 104.627C134.623 104.396 134.855 104.492 135.222 104.531C135.917 104.599 136.65 104.502 137.316 104.666C137.847 104.801 138.581 104.763 139.044 104.463C139.314 104.261 139.478 103.904 139.575 103.566C139.642 103.363 139.903 102.871 139.777 102.668C139.449 101.935 138.619 103.266 138.387 103.402C137.857 103.797 137.355 103.73 136.756 103.633C136.361 103.604 135.926 103.662 135.492 103.604C135.029 103.575 134.758 103.209 134.363 103.537C134.034 103.807 133.6 104.068 133.272 104.367C132.838 104.763 132.645 105.293 132.741 105.863C132.838 106.558 132.538 106.925 132.374 107.552C132.307 107.784 132.307 108.054 132.278 108.314C132.181 108.585 132.008 108.874 131.882 109.174C131.747 109.444 131.554 109.637 131.814 109.936C132.046 110.168 132.413 110.168 132.616 110.438C132.886 110.834 132.587 111.403 132.587 111.828C132.558 112.195 132.452 112.59 132.49 112.957C132.558 113.459 132.818 113.391 133.224 113.353C133.619 113.353 133.784 113.285 133.822 112.89C133.851 112.33 133.851 111.693 133.822 111.094C133.793 110.592 133.359 109.733 133.552 109.299C133.687 109.067 134.083 108.903 134.285 109.029C134.517 109.164 134.517 109.56 134.556 109.791C134.585 110.419 134.787 111.017 134.787 111.654C134.787 112.388 135.115 112.648 135.781 112.214C136.187 111.915 136.92 112.214 137.22 111.654Z" fill="#B8C2CC"/>
<path d="M133.235 118.854C132.965 118.652 131.806 118.092 131.546 118.623C131.382 118.99 132.173 118.922 132.376 119.019C132.704 119.154 132.81 119.549 133.206 119.549C133.766 119.549 133.534 119.086 133.235 118.854Z" fill="#B8C2CC"/>
</svg>
