<svg width="180" height="120" viewBox="0 0 180 120" fill="none" xmlns="http://www.w3.org/2000/svg">
<path d="M10.8274 101.616L10.456 101.225L10.3094 100.58L9.91856 100.316L9.99673 99.7882L9.52768 99.368L9.08794 99.3094L8.30618 98.811L7.6026 98.9772L7.34853 99.2117L7.68077 99.3583L8.00325 99.8273L8.33549 100.482L8.95113 101.41L8.98045 102.085L8.87295 102.73L9.05862 103.414L9.32247 103.257L9.50813 102.739L9.80129 102.251L9.72312 101.977L9.94787 101.85L10.0456 102.065L10.671 102.114L10.9544 101.997L10.7589 101.84L10.8274 101.616Z" fill="#B8C2CC"/>
<path d="M128.023 39.7004L127.016 41.1857L127.202 41.3811L129.371 41.7818L130.974 41.7622L130.847 40.7948L129.342 39.3583L128.023 39.7004Z" fill="#B8C2CC"/>
<path d="M127.808 35.4788L131.707 35.5863L132.537 32.5179L128.717 30.2313L125.932 30.0358L124.534 30.8567L123.967 33.7785L126.059 36.4267L127.808 35.4788Z" fill="#B8C2CC"/>
<path d="M2.80456 87.6417L1.70033 87.3192L0.2443 87.9153L0 88.7166L1.29967 88.9218L3.2443 88.9023L3.15635 88.4332L3.27362 87.9349L2.80456 87.6417Z" fill="#B8C2CC"/>
<path d="M132.088 98L131.023 95.1075L130.583 93.4072L130.612 91.7166L130.241 90.0163L129.967 88.8241L129.498 89.0782L129.919 89.9186L128.941 90.7296L128.853 93.1042L129.469 94.7655L129.42 96.9739L129.176 98.1857L129.293 99.9055L129.176 101.41L129.371 102.691L130.065 101.518L130.866 102.436L130.896 101.362L129.87 99.7687L130.515 97.4723L132.088 98Z" fill="#B8C2CC"/>
<path d="M178.036 61.4235L175.163 61.0228L175.417 62.9675L174.704 62.303L174.792 60.632L172.026 57.8665L169.436 55.658L167.951 54.3681L164.912 52.9121L162.713 53.0978L159.342 52.2378L158.873 53.5961L159.733 55.5114L158.414 56.4496L156.577 53.8111L154.573 54.1434L152.58 53.5473L150.704 53.6352L149.296 54.2509L147.987 53.3909L148.114 51.1238L147.244 49.8046L145.134 49.2671L140.873 49.8828L138.107 47.3714L137.208 45.3584L127.661 43.0717L126.264 44.6059L127.026 47.772L125.296 47.303L124.524 48.2313L122.472 47.215L120.674 48.1043L118.974 46.5994L117.958 50.0587L116.296 48.7395L114.967 46.1108L115.593 44.6645L115.114 42.3877L113.404 40.4528L111.713 40.4724L109.476 39.8176L109.417 42.632L104.99 42.0945L104.736 40.3746L101.345 39.7492L99.6547 40.3453L99.1954 41.3127L98.658 38.8991L97.7003 39.6222L96.1368 38.6548L94.8274 38.1173L95.6189 36.9544L98.4039 34.7264L99.5668 33.5049L99.8306 31.2965L98.9805 29.6645L96.5961 27.4561L93.5081 27.3974L92.5505 28.5114L92.2671 26.2346L89.8632 25.5114L91.3094 24.329L89.4919 22.746L87 24.7492L85.9935 26.7525L85.7003 28.7264L83.7557 28.658L81.3811 31.0033L80.5212 30.0261L77.7459 30.4268L77.3941 31.6189L74.5993 32.1955L72.5472 34.2671L71.3355 34.3844L70.114 37.0228L70.9739 39.0554L68.6775 39.5538L66.1368 39.3877L64.2997 40.1499L64.4072 44.0196L65.3453 46.8925L63.3909 44.9382L61.202 45.1238L59.4332 46.4723L59.912 48.8763L58.7785 48.2704L59.1987 45.0066L58.6417 43.0522L58.114 43.1303L58.3583 45.632L56.4723 47.9088L57.8404 50.557L57 53.6743L57.2541 55.3355L58.4072 55.5798L57.9186 57.4952L58.5342 59.0978L57.6156 60.417L57.3322 61.7557L56.1792 62.4398L55.7492 63.3877L54.5472 63.0066L56.6189 59.1564L57.0684 57.2704L55.9055 55.4919L56.1401 51.3193L55.798 49.0815L55.1433 48.0359L56.1498 45.2899L55.9251 43.3355L53.1303 42.3877L52.3388 43.0912L51.6547 46.2671L49.7003 49.2769L49.7296 50.3127L50.2964 52.7557L49.9544 54.202L51.2247 54.4952L51.2541 55.1303L52.329 56.6743L51.6254 58.1694L47.7948 54.8567L46.329 53.9186L43.2117 53L42.6645 54.0066L43.7687 55.7264L42.5668 57.6417L41.355 55.9023L39.7915 57.1043L37.8078 57.1825L37.0554 58.1597L35.7459 57.8665L36.7818 56.1173L35.9902 55.9707L32.2964 58.4333L30.0879 59.7623L29.8339 61.5017L28.2019 62.088L27.3713 61.1694L27.3616 59.645L28.7003 59.303L28.0945 57.7199L25.1433 56.8013L25.9153 58.5701L25.4072 60.2313L26.2769 61.8437L25.6612 63.6613L24.684 62.7427L23.7068 62.5864L21.2443 65.1368L21.9479 66.974L21.0586 67.5701L18.5081 66.0261L17.8339 66.974L18.4691 68.0294L18.3322 69.1922L17.5114 68.5766L16.1531 67.8339L16.0847 65.2834L16.0163 64.0912L14.2866 62.1759L15.0684 61.8437L19.7883 63.8372L21.5081 63.1434L22.6808 61.7557L22.6124 59.9479L21.8013 58.6189L17.8046 55.3649L14.912 54.6613L13.1824 52.8241L12.0879 53.8893L10.2899 55.0815L9.43973 55.3649L9.28338 57.3974L10.9055 59.2834L9.92833 61.3453L11.1596 64.3453L10.4463 66.5147L11.3941 68.3421L10.9642 69.9056L12.5277 71.5082L12.127 72.6808L11.1498 73.9805L8.88273 76.7655L9.99674 77.7818L8.79478 78.9349L8.95113 79.2965L8.19869 80.4789L8.51139 82.3453L8.06188 82.9805L8.57003 83.4202L8.65797 84.3681L8.99999 85.4919L7.86644 86.215L7.2215 86.5375L7.31922 87.3583L6.44951 87.9544L6.20521 88.9805L5.06188 89.6548L4.0456 89.645L4.08468 90.4365L4.37784 91.101V91.7948L3.73289 92.1564L4.06514 92.9479L4.08468 93.7101L4.59283 93.6417L5.16938 93.1824L5.99022 93.1434L7.05537 93.2802L8.23778 93.6808L9.0684 93.7199L9.46905 93.9642L9.85993 93.671L10.1433 94.0717L11.0912 93.9838L11.5114 94.1499L11.5798 93.2997L11.9023 92.9186L12.8111 92.8209L13.2117 92.8893L13.4756 92.4984L13.798 92.5864L14.8925 92.4202L15.5668 93.3877L15.3029 93.7297L15.3909 94.2574L16.2313 94.3355L16.6124 95.0684L16.5831 95.3909L17.9218 95.9675L18.7427 95.7036L19.3876 96.4756L20.0033 96.4658L21.5668 96.9935L21.5765 97.4724L21.1466 98.3127L21.3811 99.1922L21.215 99.7101L20.1987 99.8274L19.6515 100.267L19.6124 100.951L20.5603 100.707L20.5896 101.049L19.0358 101.674L19.6221 102.28L18.7427 103.541L17.9805 103.785L18.8892 104.655L20.101 105.212L21.4495 106.443L21.5765 106.277L22.4658 106.521L24.0195 106.756L25.4658 107.45L25.6515 107.713L26.0619 107.567L26.2866 107.489L27.2736 107.792L27.5961 108.368L28.2606 108.7L27.987 108.896L28.5049 109.658L28.3681 109.814L27.7915 109.736L27.0098 109.336L26.7459 109.56L25.2801 109.785L25.456 110.274L25.3583 110.938L26.1401 111.29L26.5603 111.681L26.7264 112.199L27.2638 112.824L27.987 113.01L28.3681 112.961L29.6091 111.964L30.0098 111.866L30.3225 112.267L29.9609 112.932L30.6156 113.635L30.8795 113.577L30.8502 112.912L31.241 112.59L31.4169 112.121L31.6026 111.046L32.4723 110.938L32.1498 110.567L31.6515 110.498L31.114 109.511L30.5668 108.769L30.0586 108.016L29.4137 107.098L29.4528 106.668L29.5114 106.121L28.5537 104.723L28.8371 104.313L29.5993 103.179L30.6254 102.935L31.114 102.036L32.0912 101.713L33.3225 101.039L34.2117 101.42L35.2769 101.342L35.4625 102.29L35.2769 103.756L34.3485 103.541L33.4495 103.775L33.4104 104.87L32.3844 104.723L32.4234 105.202L33 105.573L33.4788 106.883L34.7003 107.371L34.9055 107.87L34.6515 108.466L34.7003 108.808L35.0326 109.717L35.1401 108.691L35.9902 108.329L36.2932 109.14L37.0651 109.98L36.1368 110.42L35.1401 110.078L34.9055 111.241L35.6091 111.329L35.3355 112.267L36.1563 112.726L36.0098 114.124L36.2052 115.062L37.1335 114.808L37.886 114.046L38.5896 114.085L39.0489 113.84L39.8013 113.958L40.9739 114.632L41.8143 114.779L43.0261 115.951L43.8176 115.99L43.9055 117.085L44.9805 117.583L45.7818 117.407L45.9967 116.821L46.8371 116.625L47.4332 116.235L47.6384 115.179L48.5277 114.925L48.7036 114.456L49.1922 114.808L49.5146 114.847L50.101 114.857L50.9023 115.14L51.2247 115.296L51.987 114.876L52.3388 115.13L52.6808 114.524L53.316 114.544L53.4821 114.358L53.5896 113.811L54.0489 113.352L54.6254 113.655L54.5081 114.065L54.8208 114.124L54.7231 115.238L55.1433 115.678L55.5147 115.394L55.9837 115.267L56.6384 114.671L57.3616 114.769L58.456 114.779L58.2997 114.016L58.3388 113.498L57.6938 113.186L57.342 113.323L57.0782 112.072L57.3811 111.759L57.2345 111.437L58.241 110.782L58.9739 110.518L60.0879 110.704L60.4886 109.814L61.8469 109.648L62.228 109.091L63.8893 108.329L64.0358 108.007L63.9479 107.186L64.6808 106.814L63.7231 104.274L65.8143 103.668L66.3616 103.336L67.1238 100.599L69.215 101.108L69.8111 100.414L69.8599 98.8307L70.7296 98.6841L71.5407 97.6189L71.9511 97.4821L73.0651 97.2085L75.0782 95.7916L76.6906 95.0196L77.6091 95.5277L78.7134 95.5473L79.4169 96.3193L80.4723 96.3779L81.9967 96.7883L83.0228 95.645L82.6026 94.6678L83.6873 92.9088L84.8795 93.6124L85.8371 93.8176L87.0782 94.2476L87.2736 95.4984L88.7785 96.1922L89.785 95.8893L91.114 95.6743L92.1792 95.8893L93.215 96.6808L93.8502 97.5114L94.8274 97.4919L96.1563 97.7557L97.1335 97.3551L98.5212 97.0912L100.075 95.9382L100.71 96.114L101.257 96.6613L102.518 96.5245L103.788 97.1401L105.274 96.1043V95.3811L106.221 93.6026L106.808 93.0554L106.798 92.0978L106.221 91.6873L107.091 90.8176L108.401 90.5049L109.808 90.4561L111.391 90.974L112.319 91.6189L112.964 93.3583L113.365 94.0912L113.726 95.1173L114.117 96.7297L115.964 97.2574L117.215 98.3909L117.645 99.886H119.248L120.156 99.2606L121.906 98.8013L121.358 100.218L120.948 100.785L120.577 102.466L119.873 103.932L118.593 103.668L117.684 104.195L117.958 105.456L117.801 107.176L117.264 107.215L117.274 107.948L117.42 108.192L117.586 107.713L119.003 106.668L119.668 107.362L120.332 107.342L121.739 106.502L122.423 105.642L123.85 103.932L125.287 102.173L125.638 101.117L127.231 98.8502L127.71 96.2704L127.798 94.2867L128.619 92.5864L128.58 91.101L127.065 89.1466L125.902 89.0294L125.228 89.9284L124.202 89.5277L123.684 88.3942L122.013 88.1694L126.068 83.7232L129.489 79.8339L132.958 79.2281L136.192 79.5798L137.502 78.5636L139.143 78.8763L139.065 80.3714L140.707 80.1564L143.062 79.6189L142.192 78.3486L144.831 74.7427L147.557 73.9903L148.427 76.6873L151.104 74.2834L151.739 72.4268L153.029 72.2313L152.179 75.3877L150.274 77.1173L148.456 79.2769L146.57 81.8274L144.928 82.2671L144.87 83.1857L143.98 84.3486L143.472 86.9675L144.068 90.9838L144.518 93.5049L144.909 94.6678L146.433 93.0945L146.746 91.3356L148.319 90.9056L148.691 88.873L150.537 87.9349L150.098 87.1434L150.547 85.5798L151.524 85.5114L151.671 82.6971L150.469 82.2574L150.43 81.4463L151.7 79.4821L152.033 78.114L153.45 78.3974L154.466 77.5082L154.954 78.2802L157.7 76.6189L159.215 78.0945L159.606 77.1271L161.14 75.8079L162.752 74.2639L163.691 74L166.651 72.3095L168.616 72.7981L168.889 72.1922L168.762 71.2443L168.274 70.6189L167.648 68.6548L166.7 67.3551L168.068 67.531L169.427 66.4463L170.033 65.3714L169.554 64.1694L170.824 63.544L170.59 64.5114L171.166 65.4007L172.368 65.0684L173.443 65.4886L173.678 66.5733L175.085 67.2965L175.886 68.1564L176.873 68.2248L177.303 67.7167L177.322 65.2834L179.052 65.0196L180 64.0131V63.7688L178.036 61.4235Z" fill="#B8C2CC"/>
<path d="M28.3681 8.60579L29.5114 10.0618L30.7427 9.04553L30.8893 8.02924L31.8371 7.54064L33.2638 6.70026L33.6743 5.71328L32.101 4.26703L31.1042 5.36149L30.4984 6.91524L30.2834 5.16605L28.6808 5.24423L26.6091 6.42664L28.9642 6.62208L28.3681 8.60579Z" fill="#B8C2CC"/>
<path d="M34.6808 45.2508L33.5961 45.9935L33.7524 47.8111L35.6677 48.7003L35.9511 50.1368L39.4006 50.5472L40.0261 50.2736L38.0033 47.5961L37.7883 44.7622L39.4397 41.3127L41.0228 37.6189L44.3062 33.7785L47.5309 31.7752L51.2736 29.6059L51.987 28.2085L51.2443 26.3909L49.1922 26.9967L47.3746 28.6873L43.8664 29.5277L40.3778 32.3225L38.013 34.5212L38.2964 36.3583L35.7655 39.759L36.7427 40.2182L34.6417 43.3355L34.6808 45.2508Z" fill="#B8C2CC"/>
<path d="M169.436 49.9121L170.814 49.7166L171.899 48.9349L171.987 48.4951L170.463 47.5472L169.573 47.5375L169.436 47.6743L168.088 49.0521L168.274 50.0782L169.436 49.9121Z" fill="#B8C2CC"/>
<path d="M137.287 36.114L138.508 34.5114L135.85 33.4267L133.886 32.8013L133.632 34.1499L135.596 35.7525L137.287 36.114Z" fill="#B8C2CC"/>
<path d="M16.2313 103.169L16.2117 102.906L16.1042 102.925L15.8208 102.515L15.2834 102.466L14.8143 102.309L14.7557 102.456L14.5309 102.661L14.7166 102.866L13.7003 103.365L13.5244 103.658L14.6677 104.098L14.443 104.792L15.0293 105.094L16.4658 104.235L17.6189 103.98L17.8241 103.443L16.7492 103.531L16.2313 103.169Z" fill="#B8C2CC"/>
<path d="M77.8241 13.5212L79.5831 15.6808L82.5244 17.2638L84.8306 16.5798L85.0945 11.4495L82.6612 5.40066L80.6091 2L78.3225 3.55375L75.5765 8.00977L77.0228 9.24105L77.8241 13.5212Z" fill="#B8C2CC"/>
<path d="M90.2638 19.6482L90.5765 17.4984L87.8892 14.3518L87.0977 13.9805L86.228 14.6156L84.3029 21.6222L90.2638 19.6482Z" fill="#B8C2CC"/>
</svg>
