<svg width="180" height="120" viewBox="0 0 180 120" fill="none" xmlns="http://www.w3.org/2000/svg">
<path d="M22.6014 61.0069C21.0695 62.2641 21.4498 64.43 23.7529 64.5356C24.9362 64.6096 25.3588 63.5953 26.0561 62.8558C26.6161 62.2219 27.2394 61.8732 28.0846 61.8099C30.3878 61.5352 32.9022 61.4295 33.3882 58.7037C33.5678 57.6895 33.1136 56.4323 33.4199 55.492C33.6946 54.5094 34.4976 54.0235 33.8742 52.8402C33.3882 51.9316 32.5853 51.6886 31.7401 51.3399C30.5885 50.8856 29.194 49.9031 28.2114 51.1603C27.5141 52.1006 27.6831 53.6431 26.6795 54.3721C25.6969 55.0377 24.165 54.446 23.1507 55.1011C21.4709 56.1787 24.0276 57.8269 24.091 59.1475C24.1439 60.0244 23.2353 60.5209 22.6014 61.0069Z" fill="#B8C2CC"/>
<path d="M85.3252 114.688C85.8112 115.733 88.3997 115.702 89.3083 116.05C90.3542 116.431 91.5057 118.491 92.8369 117.942C94.0942 117.382 93.5025 114.73 93.0799 113.895C92.1396 111.993 84.4906 112.976 85.3252 114.688Z" fill="#B8C2CC"/>
<path d="M37.6559 52.1323C39.547 52.6605 39.959 52.407 40.9416 54.3721C41.3959 55.249 42.2728 57.3725 41.3959 58.2494C40.2443 59.401 38.8074 57.5521 38.2898 60.0349C37.9411 61.3661 39.1983 62.3381 38.818 63.5636C39.6209 63.384 41.1212 63.0354 40.8782 64.3665C40.6035 65.1695 38.2264 65.8034 37.5925 66.3211C37.0642 66.8493 35.7436 68.1066 35.9866 68.9729C36.3352 69.9554 38.818 69.6702 39.621 69.4272C41.1212 69.0468 42.3784 67.9903 43.773 67.536C45.2732 67.0078 46.8157 67.1874 48.3159 67.1874C49.5415 67.1874 50.7987 67.4621 51.7707 66.6592C53.1653 65.328 52.1933 64.7046 51.8447 63.4791C51.1474 61.2393 55.0247 60.542 52.8272 58.7671C52.3729 58.4185 51.813 58.3445 51.253 58.2072C51.01 58.1332 50.7248 58.0276 50.4818 57.9325C50.3445 57.8585 50.2388 57.7951 50.1331 57.6895C50.0275 57.6155 49.9958 57.4782 49.8902 57.4148C49.7528 57.3091 49.5732 57.2774 49.4358 57.1401C49.2245 56.9288 49.0872 56.6858 48.9076 56.4428C48.728 56.2315 48.5273 55.9885 48.4216 55.7138C48.3899 55.5765 48.4216 55.2912 48.4956 55.1856C48.4956 55.1116 48.5695 55.0799 48.5695 55.006C48.6012 54.8686 48.5695 54.7313 48.5378 54.6257C48.4322 54.2453 48.1891 53.8966 47.9778 53.548C47.4918 52.819 46.9002 52.1534 46.372 51.4562C45.8438 50.7906 45.5374 50.3045 44.8718 49.7763C44.2379 49.322 43.7202 49.079 43.6146 48.2761C43.4772 46.6385 45.4634 45.9412 45.1148 44.1874C44.8401 42.5076 42.9806 43.7014 42.0087 43.0042C40.5084 41.9582 43.8258 40.6693 41.8713 39.5811C39.5681 38.2499 37.5079 40.5636 36.3563 42.1695C35.7647 42.9408 34.7822 43.8494 34.3279 44.7157C33.6306 46.2159 34.3279 46.3215 35.0252 47.4731C36.0817 49.3009 34.9301 51.435 37.6559 52.1323Z" fill="#B8C2CC"/>
<path d="M146 21.3671V21.3776C146.021 21.3671 146.042 21.3671 146.063 21.3671H146Z" fill="#B8C2CC"/>
<path d="M158.393 53.7382C154.41 42.1801 151.019 44.4093 151.515 31.277C151.726 26.2164 146.085 24.6422 146 21.367C143.686 21.9587 141.299 20.9127 139.777 19.011C138.901 17.8911 138.277 16.2536 137.126 15.4084C135.763 14.4258 131.854 13.5595 136.006 13.5173C138.594 13.4856 139.534 14.9118 141.732 15.3027C143.127 15.514 144.912 15.271 146.338 15.0914C149.973 14.7111 152.519 10.8654 148.472 8.53058C146.338 7.3473 143.581 6.36473 141.172 6.25908C138.584 6.07947 136.597 4.57927 133.946 4.47362C131.22 4.33628 129.297 5.62519 127.237 3.56502C126.328 2.68812 126.466 2.65644 125.251 2.12819C120.919 0.311013 115.753 -0.143294 111.072 0.0363113C109.223 0.110266 108.801 0.913208 107.375 1.8218C106.043 2.65643 104.057 3.18469 102.42 3.21638C101.088 3.29034 99.3135 2.62473 97.9823 3.03677C96.2391 3.62841 95.6475 6.00553 94.591 7.29446C93.4077 8.76299 91.8018 10.0836 90.365 11.3409C88.7591 12.7354 87.0475 13.887 85.7164 15.5986C84.3852 17.3101 83.1702 19.5816 81.4586 20.8705C80.2331 21.853 78.5216 22.3707 77.0954 23.0046C74.8556 23.9871 72.8376 25.2761 70.5345 26.1107C69.1716 26.5967 66.4141 27.051 65.6111 28.3505C64.8082 29.7134 65.0512 33.4851 65.6111 34.8797C66.9001 38.1231 67.5023 43.226 72.32 40.8912C74.4541 39.8769 75.2147 37.542 77.7715 37.5737C79.9056 37.6054 79.8633 39.0423 80.6663 40.7855C81.5748 42.7083 83.635 43.6486 84.364 45.5397C84.7866 46.6913 84.3957 48.1915 84.8923 49.2797C85.3466 50.3257 86.8785 51.4773 88.0723 51.2343C89.5409 50.9173 89.6782 49.1741 90.0585 47.8852C91.6644 47.4626 93.2386 47.7056 94.2845 46.068C95.1614 44.5995 95.0136 42.5076 95.5101 40.9651C95.9961 39.3909 96.8413 38.6302 97.9929 37.6477C99.0071 36.7708 100.75 35.3762 100.085 33.7386C99.4931 32.2701 97.2533 32.2701 96.5877 30.6959C96.1334 29.6183 96.0278 26.4699 96.2074 25.35C96.8413 21.8953 101.965 22.2756 104.554 20.9867C106.297 20.0781 107.206 18.5039 109.097 17.7433C110.079 17.3629 114.506 16.243 115.383 17.0143C117.475 18.9054 112.097 22.2862 110.914 22.9201C109.657 23.5857 106.762 24.4203 105.991 25.7832C105.325 26.9348 105.399 29.8719 105.642 31.2347C105.959 32.978 107.174 34.2035 108.928 34.7317C112.879 35.915 115.245 34.9747 118.711 33.4005C119.693 32.9463 121.194 32.8089 122.24 33.1893C122.905 33.464 123.465 34.2352 124.226 34.5522C124.712 34.7635 125.758 34.6895 126.18 34.9748C127.057 35.6403 127.258 37.0032 126.603 37.7639C125.557 39.0211 123.359 38.4612 122.06 38.3555C119.926 38.1759 116.999 37.447 115.002 38.2816C112.034 39.5705 114.126 41.9476 113.925 44.4621C112.393 44.5361 110.639 43.7965 109.35 44.4938C108.23 45.1277 106.698 47.5365 106.139 48.7515C105.547 50.0404 105.61 53.0832 104.353 54.0234C103.275 54.8264 100.655 54.1291 99.4297 54.0234C97.8238 53.8438 95.901 53.4952 94.2951 53.7065C92.3723 53.9178 90.7981 55.3863 88.9915 55.8406C86.963 56.3266 86.4453 54.5517 84.7655 54.0234C83.4026 53.6008 81.8707 54.0551 80.4655 54.0551C75.3626 53.9812 78.1201 49.4805 78.1624 46.2687C78.2363 42.3914 73.799 42.2223 72.8904 45.9201C72.5101 47.526 73.1651 48.8889 73.07 50.4947C72.9961 51.9633 73.1018 53.4635 73.0384 54.932C72.7954 59.8553 68.5377 56.0519 65.6006 57.7212C64.1638 58.5558 63.6461 60.7216 62.8431 62.0211C61.9662 63.384 60.8886 63.9757 59.5258 64.8103C57.9516 65.7928 56.0287 66.4162 54.9511 68.0221C53.7256 69.7653 52.9226 70.9168 50.3764 71.1704C49.3305 71.3077 47.9993 71.0648 47.059 71.5191C45.7701 72.1107 45.1679 73.7905 43.636 74.2448C41.3011 75.0795 38.8184 73.7905 36.7899 75.8824C34.4867 78.3229 37.6245 78.7455 39.653 78.8195C42.0618 78.9251 44.1536 80.6367 44.8192 82.9081C45.2418 84.3027 44.7136 85.3909 44.608 86.7855C44.4707 88.423 44.6079 90.1029 44.1536 91.7088C43.2134 94.8571 41.2906 93.9802 38.6387 93.6316C36.9589 93.3886 35.913 94.0119 34.2754 94.3289C32.9442 94.5719 31.5813 93.9802 30.1868 93.9802C28.0209 93.9802 24.4922 93.9485 22.6117 95.0262C19.8859 96.6004 22.1891 100.372 21.8087 102.707C21.4284 104.799 20.4458 106.69 20.1712 108.824C20.0972 109.416 19.9282 110.081 20.0338 110.715C20.1395 111.381 20.5938 111.867 20.7628 112.501C21.0797 113.621 20.5515 114.635 20.6254 115.712C20.8051 118.016 24.8197 116.029 26.4256 116.653C27.6089 117.075 28.5175 118.819 29.7113 119.484C31.3172 120.361 32.0145 120.044 33.5148 119.104C34.3916 118.544 35.7122 117.984 36.6948 117.709C37.9837 117.361 39.4839 117.783 40.8468 117.498C44.1959 116.864 43.7416 113.304 46.0131 111.455C47.0907 110.578 48.0416 109.669 48.3902 108.275C48.7072 106.986 48.2529 105.549 48.7389 104.26C50.0278 100.974 54.9511 101.365 57.4656 99.791C59.98 98.2591 57.6451 94.3817 59.2088 92.3215C60.8886 90.0818 64.2694 91.8989 65.8436 93.1561C68.2524 95.1107 69.0237 92.0785 71.1473 91.1277C73.9047 89.8705 77.1587 90.1451 78.4794 93.1561C79.2083 94.8677 79.7049 96.6109 81.3424 97.7308C82.3567 98.4281 83.5399 98.2168 84.6281 98.745C86.794 99.8227 88.7485 101.471 90.9883 102.591C93.4288 103.816 92.8794 105.94 94.4113 107.799C95.1826 108.74 95.6686 109.585 95.7003 110.768C95.732 111.296 95.1087 111.497 95.8376 111.92C96.3659 112.237 96.8202 111.782 97.0949 111.465C98.5634 109.785 97.7288 107.694 98.0774 105.802C98.257 104.788 99.1233 104.091 100.211 104.366C100.835 104.545 101.849 106.109 102.546 105.898C103.73 105.549 103.001 103.7 102.546 103.203C101.849 102.474 100.972 102.126 100.064 101.872C98.912 101.555 97.7604 101.629 96.7779 100.932C95.8376 100.309 94.8868 99.4001 94.0204 98.6922C92.9745 97.8153 92.5519 97.3293 91.2312 96.9067C90.0797 96.5581 89.3085 96.1355 88.5055 95.2691C87.6709 94.3923 87.2166 93.2829 86.3714 92.4377C85.4311 91.4552 84.6282 90.6945 84.7338 89.226C84.8395 87.0285 86.7623 84.8943 89.2028 85.8346C90.3227 86.2572 90.9143 87.6201 91.3686 88.6238C91.9285 89.7754 92.6998 90.441 93.4605 91.4552C94.2635 92.5011 94.7917 93.5154 96.0806 93.938C97.6125 94.3923 99.0811 94.3183 100.518 95.1635C103.032 96.6638 104.85 98.2379 105.304 101.207C105.483 102.39 105.378 103.616 105.515 104.841C105.695 106.479 106.635 107.113 107.892 108.021C109.255 108.961 110.269 110.261 111.389 111.444C112.372 112.49 112.013 113.018 112.013 114.413C112.013 115.67 114.284 119.019 115.679 117.91C116.619 117.139 116.239 115.881 116.27 114.909C116.27 113.092 116.725 114.138 117.908 113.578C118.742 113.198 118.954 111.339 118.848 110.398C118.711 109.067 118.32 108.412 118.531 107.049C118.711 105.792 118.352 104.566 119.545 103.806C120.38 103.246 121.637 103.32 122.62 103.32C123.74 103.32 124.712 103.742 125.8 103.425C126.983 103.045 127.332 102.654 128.663 102.939C129.709 103.151 130.48 103.182 131.494 102.939C134.041 102.274 132.054 99.7593 131.22 98.2274C130.797 97.4244 129.931 96.5158 130.068 95.5333C130.248 94.1704 131.885 92.4589 132.551 91.2756C133.28 89.9127 134.02 88.5815 135.065 87.3982C136.217 86.0671 137.052 84.0069 138.415 82.9609C140.369 81.4607 143.2 82.887 143.412 85.1268C143.517 85.9614 143.095 87.2609 143.76 87.8525C144.458 88.4442 145.895 88.1695 146.697 88.7928C147.574 89.4901 147.955 90.124 149.286 89.8388C150.268 89.5958 151.621 89.0358 152.498 88.6555C153.48 88.2751 153.966 87.5356 155.118 87.6095C156.238 87.6835 156.755 88.2751 157.315 88.8985C158.15 85.7501 159.692 80.5838 158.224 77.6151C156.755 74.7308 162.196 54.5411 158.393 53.7382Z" fill="#B8C2CC"/>
</svg>
