<svg width="180" height="120" viewBox="0 0 180 120" fill="none" xmlns="http://www.w3.org/2000/svg">
<path d="M65.9787 77.0474C66.1747 77.7003 65.993 78.7764 65.5763 79.4398L65.0766 80.2342C64.6599 80.8975 64.4081 82.0736 64.5197 82.8485L64.5911 83.3522C64.7014 84.1271 64.4444 85.3006 64.0199 85.9587L63.0736 87.423C62.6479 88.0811 61.6821 88.7846 60.9253 88.9871L60.3541 89.1403C59.5974 89.3428 58.9925 90.0295 59.008 90.6656C59.0249 91.3016 58.7237 92.3816 58.3395 93.0644L57.5996 94.3794C57.2154 95.0622 56.3677 95.6333 55.7148 95.6502C55.0619 95.6671 54.5284 96.0266 54.5284 96.4511C54.5284 96.8756 54.1182 97.7141 53.6158 98.3152L51.5259 100.817C51.0235 101.418 50.5458 102.547 50.4654 103.326L50.4641 103.341C50.3823 104.12 50.05 105.318 49.7229 106.004C49.397 106.689 49.4567 107.8 49.8579 108.474L49.8838 108.518C50.2849 109.192 50.3057 110.156 49.9292 110.661C49.5541 111.167 48.8025 111.119 48.2586 110.555L47.1488 109.402C46.6049 108.837 46.2219 107.738 46.2959 106.959L48.2807 86.1781C48.3547 85.3979 47.925 84.3478 47.3253 83.8441L46.54 83.1834C45.9402 82.6798 45.3275 81.6387 45.1783 80.8689L44.8914 79.393C44.7421 78.6245 44.1943 77.516 43.6738 76.9306L43.6673 76.9228C43.1468 76.3373 42.9066 75.2443 43.1338 74.4954L45.0381 68.2023C45.2652 67.452 46.0623 66.6485 46.81 66.4148L47.8887 66.0773C48.6364 65.8436 49.8384 65.9008 50.5614 66.2032L51.6142 66.6446C52.3359 66.947 53.3925 67.6363 53.9611 68.175L54.148 68.3528C54.7166 68.8915 55.5551 69.3861 56.0121 69.451C56.469 69.5159 57.1855 70.1117 57.6035 70.7738L58.9302 72.8754C59.3481 73.5374 60.3048 74.263 61.0551 74.4889L64.2614 75.4507C65.0091 75.6766 65.7827 76.3945 65.9787 77.0474ZM43.6374 67.9686C43.849 67.7077 43.4752 67.1625 42.8041 66.7575L42.6898 66.6887C42.02 66.2837 41.5514 65.3776 41.6488 64.6767C41.7461 63.9744 41.3463 63.2812 40.7583 63.1333C40.1703 62.9866 39.7899 62.2337 39.912 61.46L40.0015 60.8915C40.1235 60.1178 39.8626 59.4311 39.4226 59.3662C38.9825 59.3013 38.4607 59.6881 38.266 60.2268C38.07 60.7656 37.5222 61.2199 37.0497 61.2355C36.5759 61.2523 35.9217 60.9577 35.5958 60.5825C35.27 60.2074 34.9351 59.2624 34.8533 58.4835L34.7949 57.9344C34.7131 57.1556 35.0065 56.0107 35.4466 55.3902C35.8866 54.7697 36.8796 54.157 37.652 54.0285L39.1149 53.7845C39.8873 53.656 40.8414 54.1051 41.2347 54.7827L41.5268 55.2863C41.9201 55.9639 42.4951 56.5182 42.8054 56.5182C43.1156 56.5182 43.3025 55.8809 43.2221 55.102L43.1598 54.4932C43.0793 53.7144 43.4324 52.5915 43.9451 51.9996L44.7512 51.0676C45.2639 50.4757 45.7364 49.5501 45.8014 49.0114C45.8663 48.4727 46.3595 47.5667 46.8982 46.9968L49.9279 43.7866C50.4654 43.2168 50.7457 42.2432 50.5497 41.624C50.3537 41.0036 50.8093 40.3169 51.5609 40.0975L51.6752 40.0637C52.4268 39.8444 53.4535 40.1559 53.9559 40.7569L54.2635 41.1243C54.7659 41.7253 55.5253 42.1095 55.9498 41.9784C56.3742 41.8473 56.4404 41.2606 56.0977 40.6725C55.755 40.0845 55.5681 39.0032 55.6823 38.2698C55.7966 37.5351 55.4059 36.5148 54.8152 36.0007L54.235 35.4958C53.6444 34.9818 53.1732 34.4015 53.19 34.2055C53.2069 34.0095 52.9122 33.4487 52.5371 32.9593C52.1619 32.47 51.4402 32.2155 50.9353 32.396C50.429 32.5751 49.6307 32.2091 49.1608 31.5834L49.0894 31.4886C48.6195 30.8616 47.6511 30.0841 46.9385 29.7596L46.9203 29.7518C46.2077 29.4273 45.3587 29.7453 45.0342 30.4592L45.0264 30.4774C44.7019 31.1901 44.6435 32.3804 44.8953 33.1229L45.0472 33.5707C45.299 34.3119 45.212 35.0934 44.8525 35.305C44.4929 35.5166 44.2527 36.1981 44.3189 36.8185C44.3838 37.439 44.1035 37.9998 43.6959 38.0647C43.2883 38.1296 42.6522 37.6182 42.2835 36.9263L42.2005 36.7692C41.8318 36.0786 41.0101 35.1388 40.3741 34.6806L37.4054 32.5453C36.7693 32.0883 36.6369 31.2043 37.112 30.5813L38.2335 29.1079C38.7086 28.4849 39.6212 28.3421 40.2637 28.7912L40.304 28.8198C40.9452 29.2689 41.7111 29.3559 42.0045 29.0132C42.2978 28.6705 42.3511 28.0162 42.1226 27.5593C41.8941 27.1024 42.0681 26.3547 42.5081 25.8978C42.9482 25.4409 43.0689 24.7736 42.7755 24.4141C42.4822 24.0545 42.5613 23.4275 42.9534 23.0199C43.3454 22.6123 44.2566 22.5254 44.9797 22.8278L46.3271 23.3912C47.0501 23.6936 47.5745 24.5413 47.4928 25.276C47.411 26.0107 47.3448 27.0245 47.3448 27.5308C47.3448 28.037 47.9133 28.7458 48.6078 29.1079L49.0479 29.3364C49.7423 29.6973 50.6886 29.4753 51.1507 28.8431L52.676 26.7532C53.1381 26.121 52.9291 25.3448 52.2113 25.0307L51.4376 24.6919C50.7198 24.3777 49.8682 23.5366 49.5437 22.8239L49.5359 22.8057C49.2114 22.0931 48.4209 21.1429 47.7783 20.6951C47.7783 20.6951 43.8425 17.9496 43.8425 17.7718C43.8425 17.594 44.65 15.7001 44.65 15.7001C44.9563 14.9796 45.7481 14.045 46.4089 13.6244L50.712 10.8829C51.3727 10.4623 51.6466 9.90412 51.3195 9.6432C50.9937 9.38229 50.0863 9.20575 49.3049 9.24988L38.7385 9.85739C37.957 9.90282 37.0094 10.1533 36.6343 10.4143C36.2592 10.6752 36.1462 11.4995 36.3851 12.2459L37.2989 15.1107C37.5365 15.8571 38.1959 16.9099 38.7619 17.4512C38.7619 17.4512 39.037 17.7134 39.2746 17.7134C39.5121 17.7134 39.3732 18.2871 39.3732 18.2871C39.1889 19.0478 38.584 19.5372 38.0284 19.3749C37.4742 19.2114 36.755 18.4948 36.4318 17.7809L36.1826 17.2305C35.8593 16.5165 35.222 15.4132 34.7651 14.7758C34.3081 14.1398 33.3605 13.6192 32.6583 13.6192C31.956 13.6192 31.3563 14.0736 31.3225 14.6278C31.2901 15.1821 31.8768 15.8234 32.6258 16.0518L32.631 16.0531C33.38 16.2816 34.0329 16.8553 34.0823 17.3278C34.1316 17.8016 33.8642 18.2819 33.489 18.3962C33.1139 18.5104 32.9802 19.0309 33.1918 19.5528C33.4034 20.0746 34.1653 20.7561 34.8858 21.065L36.1267 21.5998C36.8459 21.9101 37.0432 22.6707 36.5655 23.2912L36.1086 23.8832C35.6309 24.5036 34.6002 24.9554 33.8201 24.8866L33.2749 24.8385C32.4947 24.7697 31.5225 24.5672 31.1149 24.3881C30.7073 24.209 30.8539 23.6482 31.4407 23.142C32.0287 22.6357 32.1105 21.7206 31.6237 21.1066L30.6644 19.8967C30.1776 19.2828 29.1664 18.9673 28.4174 19.1958L28.4122 19.1971C27.6633 19.4255 26.9298 19.2114 26.7832 18.722C26.6365 18.2326 27.1401 17.6874 27.9034 17.5122L28.9847 17.2629C29.748 17.0864 30.0115 16.449 29.5714 15.8454C29.1314 15.2418 28.276 14.6006 27.6723 14.4214C27.0687 14.2423 25.99 14.3578 25.2748 14.6772L22.7111 15.826C21.9958 16.1466 21.352 17.0462 21.278 17.8263L21.1884 18.7882C21.1157 19.5683 21.5766 20.3134 22.2126 20.4432C22.8487 20.5743 23.8651 21.0871 24.47 21.5856L24.9399 21.9724C25.5448 22.4695 25.8797 23.264 25.6837 23.7378C25.4877 24.2116 24.7841 24.2596 24.1182 23.8455L23.8664 23.6884C23.2017 23.2744 22.0387 22.7681 21.2832 22.563L20.5316 22.3592C19.7761 22.1541 18.6507 22.38 18.0328 22.8603L17.6109 23.1887C16.993 23.669 15.8948 23.817 15.1718 23.5171L14.6578 23.3042C13.9347 23.0044 12.7094 22.6604 11.9357 22.5396L7.09515 21.7894C6.3215 21.6699 5.06625 21.7283 4.30687 21.9205L2.38052 22.4085C1.62114 22.6007 0.761814 23.3535 0.471044 24.0805L0.107581 24.9904C-0.183189 25.7173 0.136139 26.6299 0.816333 27.0167L0.951334 27.0933C1.63283 27.4801 1.7886 28.2642 1.29922 28.8353C0.809843 29.4065 0.716381 30.0737 1.09153 30.319C1.46667 30.5644 1.97422 31.2043 2.21956 31.743C2.4649 32.2817 3.27879 32.7491 4.02909 32.7815C4.77938 32.814 5.95154 32.5258 6.63434 32.1403L7.83246 31.464C8.51396 31.0784 9.69391 30.9188 10.4546 31.1096L12.2005 31.5457C12.9599 31.7353 14.0425 32.3376 14.6046 32.8828L16.4764 34.6975C17.0385 35.2427 17.9121 36.1786 18.417 36.7783L20.0825 38.754C20.5874 39.3524 21.021 40.483 21.0456 41.2658L21.1923 45.896C21.217 46.6788 21.5714 47.8665 21.9803 48.535L23.7586 51.4453C24.1675 52.1138 24.9412 52.6071 25.4799 52.5422C26.0186 52.4773 26.8325 52.9446 27.2894 53.5807L30.14 57.5554C30.5969 58.1915 30.9033 59.0729 30.8215 59.5142C30.7397 59.9542 31.1707 60.7188 31.7782 61.2134L33.3657 62.5024C33.9732 62.9969 34.965 63.2397 35.5686 63.045C36.1722 62.849 36.9874 63.0891 37.3781 63.5785C37.7701 64.0679 38.5438 64.5884 39.0994 64.7351C39.6536 64.8818 40.1612 65.3491 40.2274 65.7735C40.2923 66.198 40.8829 66.8951 41.5385 67.3235L42.0616 67.6649C42.7158 68.0919 43.4259 68.2295 43.6374 67.9686ZM73.3272 21.2091L73.3752 20.8703C73.4842 20.0954 73.9347 18.9894 74.3747 18.4143C74.8148 17.8393 75.0484 16.7398 74.8927 15.9726C74.8927 15.9726 74.5526 14.2981 74.5526 14.119C74.5526 13.9411 77.5343 11.6708 77.4447 11.4488C77.3551 11.2269 77.3551 11.2269 77.3551 11.2269C77.2331 10.5661 76.5114 10.1845 75.7533 10.3779L74.5071 10.6959C73.7478 10.8894 73.0468 10.818 72.9494 10.5363C72.8521 10.2546 72.9416 9.88465 73.1493 9.7133C73.357 9.54195 72.9235 9.18758 72.1849 8.92666L70.5973 8.36459C69.8587 8.10368 68.6164 7.94661 67.8363 8.01671L63.7746 8.38406C62.9944 8.45416 61.8366 8.88772 61.2018 9.34594L61.107 9.41344C60.4723 9.87166 59.3235 10.1235 58.555 9.97162L58.4122 9.94306C57.6437 9.79118 56.4145 9.89373 55.6823 10.1689L52.0737 11.5254C51.3403 11.8006 50.8003 12.3964 50.8743 12.8495C50.9482 13.3025 50.5368 13.9437 49.9617 14.2735C49.3867 14.6045 48.9765 15.2444 49.0492 15.6975C49.1231 16.1505 49.8241 16.5204 50.6068 16.5204H52.1204C52.9032 16.5204 54.0182 16.9527 54.5971 17.4797L55.6668 18.4546C56.2457 18.9816 56.5456 19.7046 56.334 20.059C56.1224 20.4134 56.3288 21.0546 56.7935 21.483C57.2582 21.9114 57.5139 22.8901 57.3595 23.6586L57.2504 24.2038C57.0973 24.9722 57.3283 26.1327 57.7658 26.7818L60.005 30.1139C60.4424 30.7643 61.3498 31.2056 62.0235 31.0953C62.6972 30.985 63.3527 30.2632 63.4812 29.4909L63.7694 27.7605C63.8979 26.9882 64.3237 26.456 64.7157 26.578C65.1077 26.7 65.8489 26.5299 66.363 26.2002C66.877 25.8692 67.4572 25.2189 67.6533 24.7542C67.8493 24.2895 68.4905 23.9481 69.0773 23.9974C69.6653 24.0467 70.7206 23.8027 71.4229 23.4574L71.85 23.2471C72.5548 22.9018 73.2181 21.9841 73.3272 21.2091ZM77.581 26.6013C77.5083 26.099 76.8112 25.7628 76.0337 25.8523L73.4765 26.1483C72.6989 26.2379 71.9512 26.5118 71.8175 26.7571C71.6825 27.0024 72.0732 27.523 72.6859 27.9137C73.2973 28.3057 74.415 28.4511 75.1679 28.2369L76.3439 27.9033C77.0968 27.6891 77.6537 27.1037 77.581 26.6013ZM179.203 26.1094C179.203 26.1094 175.635 23.7014 175.34 23.4639C175.042 23.2263 172.524 22.7305 172.524 22.7305C171.755 22.5786 170.807 22.7629 170.415 23.1381C170.023 23.5132 169.065 23.7559 168.286 23.6768L167.619 23.6093C166.84 23.5301 165.774 23.1575 165.252 22.7824C164.73 22.4072 163.665 22.0425 162.884 21.9711L162.457 21.9321C161.677 21.8607 160.719 21.5635 160.327 21.2688C159.935 20.9755 158.978 20.6639 158.2 20.5769L156.759 20.4173C155.98 20.3303 155.183 20.4874 154.987 20.7639C154.791 21.0404 154.019 21.4583 153.271 21.6907L152.549 21.914C151.801 22.1463 150.65 21.988 149.993 21.5635L149.538 21.2688C148.879 20.8443 147.741 20.5756 147.006 20.6743C146.272 20.7717 145.258 20.5315 144.752 20.1408C144.245 19.7488 143.391 19.3892 142.852 19.3399C142.314 19.2905 141.874 18.7298 141.874 18.0937C141.874 17.4577 141.5 16.6295 141.043 16.2543C140.586 15.8792 139.891 15.7052 139.501 15.8688C139.109 16.0324 138.295 15.8714 137.691 15.5131C137.088 15.1536 136.104 15.2743 135.507 15.7805L135.366 15.8987C134.768 16.4049 133.639 16.8346 132.856 16.8553L131.075 16.9008C130.292 16.9202 129.358 17.4044 128.998 17.9756C128.638 18.5467 127.715 19.1348 126.947 19.2815L126.719 19.3256C125.949 19.4723 124.794 19.9591 124.151 20.4069L123.402 20.9287C122.759 21.3766 121.994 21.2597 121.7 20.6678C121.407 20.0759 120.753 19.5917 120.246 19.5917C119.74 19.5917 119.052 20.1706 118.718 20.8794L118.275 21.8205C117.94 22.5293 117.119 22.7746 116.451 22.3657L114.313 21.0611C113.644 20.6535 113.27 20.0785 113.483 19.7851C113.695 19.4917 114.484 19.0712 115.236 18.8505L117.962 18.0509C118.713 17.8302 119.208 17.2357 119.061 16.7307C118.915 16.2245 118.162 15.9168 117.389 16.0479L114.561 16.5243C113.788 16.6541 112.771 17.272 112.299 17.8977L110.929 19.7176C110.457 20.3433 110.659 21.1131 111.375 21.4285L113.753 22.476C114.47 22.7915 115.123 23.3042 115.205 23.6145C115.286 23.9247 114.713 24.1869 113.929 24.1973L112.445 24.2181C111.662 24.2284 110.455 24.5387 109.764 24.9073L109.549 25.0216C108.857 25.3902 107.918 25.4175 107.462 25.0826C107.005 24.7477 106.484 24.9151 106.305 25.4538C106.126 25.9925 105.492 26.8506 104.899 27.362L104.507 27.6995C103.914 28.211 103.052 28.1084 102.594 27.4737L101.947 26.578C101.489 25.9432 101.719 25.6343 102.459 25.8913L102.498 25.9056C103.238 26.1626 103.976 25.9458 104.14 25.424C104.303 24.9021 103.859 24.1947 103.154 23.8533L99.8431 22.2476C99.1382 21.9062 97.9206 21.6258 97.1379 21.6258H95.7139C94.9311 21.6258 93.9329 22.158 93.4955 22.8083L92.3532 24.5088C91.917 25.1592 91.081 26.1172 90.4956 26.639L87.9942 28.8678C87.4088 29.3883 86.9765 30.454 87.0323 31.2355L87.0674 31.7171C87.1232 32.4985 87.5022 33.1515 87.9111 33.167C88.3187 33.1839 88.7159 33.8343 88.7912 34.6144L88.7925 34.6274C88.8691 35.4075 89.5363 35.8333 90.2749 35.575L90.8084 35.3881C91.5483 35.1297 92.4557 34.3522 92.8257 33.6629L93.2605 32.8503C93.6305 32.1597 93.6655 31.2342 93.3397 30.7941C93.0139 30.3541 93.0762 29.4441 93.4786 28.7717L94.3275 27.3568C94.7299 26.6857 95.514 26.2963 96.0696 26.4923C96.6238 26.6883 96.7095 27.3724 96.2578 28.0124L96.0592 28.2953C95.6074 28.9353 95.453 29.7933 95.7139 30.2009C95.9748 30.6085 96.7913 30.724 97.5273 30.4579L98.9435 29.9452C99.6795 29.6778 100.47 29.8206 100.697 30.2606C100.926 30.7007 100.5 31.2485 99.7509 31.4769L96.838 32.3661C96.089 32.5946 95.2427 33.3786 94.9584 34.1081L94.6287 34.9558C94.3444 35.6853 93.476 36.3655 92.6997 36.4655L89.1157 36.9302C88.3395 37.0314 87.1803 37.4832 86.5391 37.9336L83.2237 40.2675C82.5838 40.7193 82.4929 41.5604 83.0238 42.1368L83.1147 42.2354C83.6443 42.8118 83.9844 43.5114 83.8702 43.7879C83.756 44.0657 83.0225 44.2552 82.2411 44.2085L81.0495 44.1384C80.268 44.093 79.5839 44.694 79.5307 45.4754L79.4282 46.9656C79.3749 47.7471 79.7579 48.5999 80.2797 48.8608C80.8015 49.1218 81.7764 49.1218 82.4449 48.8608C83.1134 48.5999 84.0727 47.8951 84.5751 47.2941L85.18 46.571C85.6823 45.97 86.7052 45.2872 87.4529 45.051L87.5658 45.0159C88.3135 44.781 89.3818 45.0289 89.9426 45.5676C90.5021 46.1063 90.8266 46.9202 90.6631 47.3771C90.4995 47.8341 90.593 48.4351 90.8707 48.7129C91.1485 48.9907 91.8028 48.7505 92.3246 48.1794C92.8464 47.6082 92.8425 46.6671 92.3155 46.0868L91.2641 44.9303C90.737 44.35 90.3723 43.7425 90.4541 43.5802C90.5358 43.4167 91.1291 43.6477 91.7729 44.0943L92.5167 44.6096C93.1606 45.0549 93.9498 46.0051 94.2717 46.719L94.9441 48.2157C95.2648 48.9296 95.7684 49.3944 96.0618 49.2477C96.3551 49.101 96.4084 48.487 96.1799 47.8834C95.9514 47.2798 96.0981 46.719 96.5057 46.6372C96.9133 46.5555 97.513 47.0721 97.8389 47.7847L97.9025 47.9236C98.2283 48.6363 99.1343 49.2386 99.9171 49.262C99.9171 49.262 102.409 49.3372 102.589 49.4567C102.766 49.5748 102.738 49.7682 102.738 49.7682C102.624 50.5432 102.222 51.5907 101.847 52.097C101.472 52.6032 100.75 53.0965 100.245 53.1951C99.7392 53.2925 98.7151 53.1796 97.9687 52.9433L95.8177 52.2618C95.0713 52.0256 94.4872 52.2047 94.5197 52.6616C94.5521 53.1186 94.1653 53.5054 93.659 53.5223C93.1528 53.5391 92.1714 53.2549 91.477 52.8927L91.2732 52.7862C90.5787 52.4241 89.9322 51.4908 89.8375 50.7145L89.8271 50.634C89.7323 49.8565 89.0132 49.2204 88.2304 49.2204H86.7467C85.964 49.2204 84.8554 49.5281 84.2843 49.9032C83.7131 50.2784 82.859 50.5055 82.3852 50.4082C81.9114 50.3108 81.017 50.6171 80.3978 51.0909C79.7773 51.5647 79.1906 52.4721 79.092 53.1082C78.9946 53.7442 78.5403 54.7866 78.0846 55.4226L76.5983 57.4983C76.1427 58.1356 75.7338 59.2961 75.6897 60.0776L75.5521 62.5413C75.508 63.3228 75.8 64.5144 76.2011 65.1868L78.365 68.824C78.7648 69.4977 79.7306 69.9897 80.5108 69.917L81.5311 69.8223C82.3112 69.7509 83.5171 69.3952 84.2129 69.0343L84.6529 68.8059C85.3474 68.445 86.1704 68.6034 86.4806 69.1576C86.7909 69.7119 87.5256 70.3129 88.1123 70.4934C88.7004 70.6725 89.0314 71.4423 88.8483 72.2042L88.8016 72.4016C88.6186 73.1635 88.8938 74.2656 89.4143 74.8523L89.8388 75.3313C90.358 75.9181 90.8617 77.0331 90.9577 77.8107L91.1433 79.3151C91.2394 80.0927 91.1031 81.3324 90.8396 82.0697L90.5488 82.8875C90.2866 83.6248 90.2983 84.6827 90.5761 85.2383C90.8539 85.7926 91.1641 86.883 91.2667 87.6592L91.4886 89.3454C91.5912 90.1217 91.9144 91.0913 92.2091 91.4989C92.5024 91.9065 92.9191 92.8567 93.1346 93.6096L93.1826 93.7784C93.3981 94.5312 94.212 95.0894 94.9922 95.0193L96.0722 94.9207C96.8523 94.8493 97.896 94.295 98.3918 93.6888L99.4978 92.3349C99.9937 91.7287 100.399 90.8447 100.399 90.3709C100.399 89.8971 100.732 89.3104 101.14 89.065C101.547 88.8197 101.908 88.4329 101.941 88.2044C101.973 87.9759 101.893 87.2685 101.763 86.6324C101.632 85.9964 102.042 85.0968 102.674 84.6334L103.048 84.3595C103.68 83.8961 104.298 82.8849 104.421 82.1112L104.446 81.9567C104.569 81.1831 104.585 79.9148 104.48 79.1399L104.21 77.1564C104.105 76.3802 104.428 75.2534 104.93 74.6511L107.854 71.1424C108.355 70.5401 109.014 69.4575 109.316 68.7358L109.459 68.3944C109.763 67.6726 109.877 66.8548 109.714 66.5771C109.55 66.2993 108.779 66.1396 108 66.2214L107.451 66.2798C106.672 66.3616 105.775 65.8423 105.459 65.1258L101.625 56.4559C101.309 55.7394 101.276 55.0462 101.554 54.9164C101.832 54.7853 102.313 55.2669 102.626 55.9847L106.001 63.7563C106.313 64.4742 107.12 64.7364 107.795 64.3379L111.87 61.9299C112.544 61.5314 113.39 60.711 113.748 60.1074C114.108 59.5038 113.921 58.6497 113.333 58.2083C112.745 57.7683 111.891 57.4879 111.434 57.5853C110.977 57.6826 110.247 57.2296 109.812 56.5779L108.9 55.2098C108.465 54.5581 108.377 53.8909 108.704 53.7287C109.03 53.5651 109.812 53.8117 110.443 54.2777L112.898 56.0886C113.529 56.5533 114.684 56.9025 115.467 56.8648L116.301 56.8246C117.084 56.7869 118.225 57.1543 118.838 57.6424L119.517 58.1824C120.13 58.6704 120.707 59.705 120.801 60.4839L120.817 60.6228C120.911 61.4003 121.238 62.627 121.543 63.3474L122.923 66.6004C123.229 67.3209 123.706 67.5649 123.984 67.1404C124.261 66.716 124.585 65.7359 124.703 64.9609L124.808 64.2756C124.926 63.5019 125.549 62.5024 126.193 62.0558L129.073 60.0594C129.717 59.6129 130.615 59.7712 131.068 60.4099L132.326 62.1818C132.779 62.8204 133.257 63.9744 133.387 64.7468L133.863 67.5753C133.993 68.3476 134.433 69.207 134.842 69.4835C135.25 69.7613 135.496 69.3537 135.388 68.5774L135.246 67.5415C135.138 66.7653 135.504 66.4382 136.06 66.8133C136.614 67.1885 137.551 67.0742 138.142 66.5602L138.309 66.4148C138.9 65.8995 139.087 64.9103 138.723 64.2158L138.617 64.012C138.255 63.3176 137.838 62.2285 137.691 61.5924C137.545 60.9564 138.018 60.1957 138.745 59.9036L142.155 58.5328C142.882 58.2408 143.819 57.4606 144.239 56.7986L144.613 56.208C145.032 55.546 145.442 54.5841 145.523 54.07C145.604 53.556 145.377 52.6149 145.018 51.9788C144.658 51.3428 144.552 50.5276 144.78 50.1693C145.009 49.8097 144.955 49.3294 144.662 49.101C144.369 48.8725 144.341 48.2845 144.602 47.7951C144.863 47.3057 145.424 46.9579 145.848 47.0241C146.273 47.089 146.927 47.4901 147.302 47.9145C147.677 48.339 147.864 49.1269 147.718 49.6657C147.571 50.2044 147.611 50.7911 147.807 50.9715C148.003 51.1507 148.443 50.8041 148.786 50.2005C149.129 49.5969 149.235 48.6493 149.023 48.0937C148.812 47.5394 149.118 46.6606 149.706 46.1427C149.706 46.1427 151.665 44.4149 151.843 44.4149C152.021 44.4149 153.414 42.7715 153.414 42.7715C153.92 42.1744 154.495 41.1373 154.691 40.4687C154.887 39.8002 155.061 38.8513 155.076 38.362C155.093 37.8726 154.546 37.1651 153.86 36.79C153.175 36.4148 153.04 35.6282 153.56 35.0428L155.466 32.8996C155.986 32.3142 157.051 31.8832 157.832 31.9416L160.51 32.1428C161.292 32.2013 162.463 31.8923 163.112 31.4549L163.835 30.9681C164.485 30.5306 165.59 30.4592 166.289 30.8097C166.289 30.8097 166.44 30.885 166.618 30.9447C166.796 31.0044 163.117 34.5054 163.057 34.6832C162.997 34.861 162.96 37.4728 162.96 37.4728C162.948 38.2555 163.192 38.8695 163.502 38.8371C163.813 38.8046 164.401 38.2309 164.809 37.5623L166.409 34.948C166.818 34.2795 167.246 33.2125 167.359 32.5764C167.473 31.9403 168.204 31.4886 168.983 31.5743L169.415 31.621C170.194 31.7054 170.978 31.4678 171.157 31.0927C171.336 30.7176 172.102 30.2425 172.858 30.0387L172.956 30.0114C173.712 29.8063 174.318 29.3325 174.301 28.9574C174.284 28.5822 174.713 28.0474 175.25 27.7709C175.789 27.4931 176.818 27.5178 177.54 27.8241L178.124 28.0734C178.844 28.3797 179.648 28.2447 179.909 27.7709C180.17 27.2932 179.852 26.5468 179.203 26.1094ZM108.584 81.1117C108.519 81.5193 108.225 82.1943 107.931 82.6097C107.638 83.0263 107.057 83.4794 106.641 83.6183C106.224 83.7572 105.971 84.1713 106.078 84.5386C106.184 84.906 106.337 85.3863 106.419 85.6069C106.501 85.8276 106.374 86.1872 106.137 86.4079C105.901 86.6285 105.861 87.3425 106.048 87.9954C106.236 88.6483 106.689 89.2558 107.057 89.3454C107.424 89.435 107.798 89.409 107.887 89.2857C107.977 89.1637 108.204 88.4406 108.392 87.68L109.401 83.5923C109.589 82.8316 109.509 81.7958 109.223 81.2895C108.936 80.7833 108.649 80.7041 108.584 81.1117ZM161.081 90.5929C160.928 89.8244 160.449 88.6613 160.018 88.0071L159.181 86.7363C158.75 86.082 158.162 84.9514 157.874 84.2232L157.231 82.5993C156.943 81.8711 156.467 81.1454 156.173 80.9858C155.88 80.8261 155.576 81.3336 155.497 82.1138L155.38 83.2847C155.302 84.0635 154.695 84.3621 154.03 83.9467L153.954 83.8987C153.289 83.4833 152.755 82.9238 152.768 82.6538C152.78 82.3851 152.92 82.0943 153.08 82.0087C153.24 81.923 153.369 81.6932 153.369 81.4972C153.369 81.3012 152.732 81.2103 151.953 81.296L151.936 81.2973C151.158 81.383 150.28 81.7724 149.987 82.1644C149.693 82.5564 149.122 82.746 148.718 82.5876C148.315 82.4279 147.618 82.8238 147.169 83.4651L146.53 84.3789C146.081 85.0215 145.145 85.8406 144.449 86.2002L143.019 86.9401C142.323 87.2996 141.593 87.8137 141.397 88.0837C141.201 88.3524 141.28 89.1676 141.573 89.8945C141.573 89.8945 142.42 92 142.42 92.1337C142.42 92.2674 142.873 94.3469 142.873 94.3469C143.039 95.1128 143.792 95.5619 144.545 95.3464L149.417 93.9497C150.17 93.7342 151.116 93.9147 151.52 94.3508C151.923 94.787 152.535 95.0583 152.878 94.9518C153.22 94.8454 153.759 95.3451 154.076 96.0617L154.438 96.8834C154.755 97.5999 155.433 98.136 155.947 98.075C156.462 98.014 157.503 97.8439 158.262 97.6973C159.021 97.5506 159.831 96.9158 160.065 96.2875C160.297 95.6593 160.728 94.6585 161.022 94.0626C161.315 93.4668 161.431 92.3518 161.276 91.5833L161.081 90.5929ZM158.043 99.8326C157.529 99.8326 157.318 100.323 157.575 100.923C157.832 101.523 158.253 101.523 158.51 100.923C158.767 100.323 158.557 99.8326 158.043 99.8326ZM150.505 75.5027L150.803 75.5663C151.569 75.7285 152.628 76.3347 153.155 76.9137L154.264 78.1313C154.791 78.7102 155.855 79.2892 156.628 79.4177L158.091 79.6617C158.863 79.7902 159.495 79.2554 159.495 78.4714V78.1157C159.495 77.333 158.928 76.3944 158.233 76.031L157.018 75.3949C156.325 75.0315 155.124 74.633 154.351 74.5083L152.357 74.1877C151.583 74.0631 150.537 74.2422 150.031 74.5849C149.526 74.9276 149.739 75.3404 150.505 75.5027ZM147.829 68.7695L148.317 67.4624C148.591 66.7289 148.467 65.5905 148.04 64.9337L146.623 62.7529C146.196 62.0961 145.616 62.1558 145.333 62.8866L144.937 63.9095C144.654 64.6403 144.752 65.7878 145.154 66.4602L146.6 68.8812C147.002 69.5549 147.555 69.5042 147.829 68.7695ZM142.511 70.4531L140.345 71.8317C139.684 72.2523 139.596 73.0493 140.15 73.6036L140.984 74.4382C141.539 74.9925 142.625 75.5403 143.4 75.6558L145.746 76.0063C146.521 76.1219 146.677 75.7895 146.094 75.2664L144.772 74.0826C144.189 73.5594 143.712 72.4911 143.712 71.7084V71.1152C143.712 70.3298 143.172 70.0326 142.511 70.4531ZM146.887 79.48C147.034 78.9906 146.539 78.4078 145.789 78.1858L140.509 76.6216C139.758 76.3996 138.727 75.7298 138.217 75.1353L135.442 71.8979C134.932 71.3034 133.967 70.8166 133.299 70.8166C132.63 70.8166 132.447 71.3436 132.894 71.9862L136.374 77.0032C136.82 77.6471 137.809 78.3182 138.573 78.496L145.233 80.046C145.995 80.2251 146.74 79.9694 146.887 79.48ZM151.581 52.894L154.238 51.949C154.976 51.6868 155.655 50.8352 155.748 50.0577L157.072 38.9409C157.164 38.1634 156.986 37.3404 156.677 37.1119C156.367 36.8834 155.999 37.3274 155.86 38.0984L154.229 47.163C154.09 47.934 153.475 48.9634 152.861 49.4502L151.354 50.647C150.74 51.1338 150.239 51.9464 150.239 52.4526C150.24 52.9576 150.843 53.1562 151.581 52.894ZM79.349 38.3957C79.7345 38.506 80.3251 38.0206 80.6613 37.317C80.9975 36.6134 81.3688 36.1682 81.4843 36.3266C81.6011 36.4862 81.5752 37.2456 81.4272 38.0141L81.409 38.1101C81.261 38.8799 81.7673 39.3784 82.5345 39.22L82.5384 39.2187C83.3055 39.0603 84.2012 38.5696 84.5283 38.1283C84.8554 37.6883 84.6997 36.8471 84.1804 36.2604L84.0415 36.1033C83.5223 35.5166 83.0187 34.4807 82.92 33.8005C82.8226 33.1216 82.2216 32.566 81.5843 32.566C80.9482 32.566 80.5354 33.1982 80.6691 33.9693C80.6691 33.9693 80.7834 34.6352 80.7834 34.7247C80.7834 34.8143 79.4074 36.9925 79.4074 36.9925C78.9894 37.6532 78.9634 38.2854 79.349 38.3957Z" fill="#B8C2CC"/>
</svg>
