<svg width="180" height="120" viewBox="0 0 180 120" fill="none" xmlns="http://www.w3.org/2000/svg">
<g clip-path="url(#clip0_480_19661)">
<path d="M52.6322 0.241327C52.5103 0.353965 52.285 0.2188 52.1141 0.241327C48.8125 0.677302 45.758 2.1363 42.5081 2.83068C40.1294 3.33887 37.7262 4.14258 35.2913 3.98024C33.1956 3.84044 31.1966 3.00957 29.2983 2.17737C28.1779 1.6864 27.406 0.398357 26.1683 0.318848C24.7146 0.225424 23.1198 0.968835 22.1994 2.01239C21.5713 2.72466 21.7177 3.79472 21.521 4.69516C21.3619 5.42267 21.0598 6.14952 21.1168 6.88962C21.1459 7.27193 21.4236 7.60719 21.4978 7.98419C21.7601 9.32061 21.4746 10.7133 21.7105 12.0544C21.9165 13.2258 22.5155 14.3151 22.7533 15.4812C22.9488 16.44 22.6089 17.5134 23.0648 18.3933C23.4365 19.1102 24.4204 19.4083 24.9067 20.0643C25.6932 21.1251 26.0994 22.3939 26.5559 23.6084C26.6248 23.7919 26.6924 23.9788 26.7195 24.1716C26.7493 24.3796 26.5585 24.6533 26.7195 24.8017C27.3927 25.4212 28.641 24.6135 29.5719 24.7931C30.5751 24.9866 31.4987 25.4643 32.3859 25.938C33.0524 26.2938 33.4791 27.1618 34.2477 27.2009C35.767 27.2784 36.6939 25.2841 38.2013 25.0952C40.4739 24.8103 42.685 26.0222 44.8622 26.6874C45.648 26.9272 46.3397 27.4692 47.1627 27.5501C47.8862 27.621 48.627 27.4255 49.3121 27.2009C50.3589 26.8577 51.1931 26.0878 52.2228 25.7041C53.2961 25.3046 54.4358 25.0455 55.58 24.8845C56.4467 24.7626 57.3802 24.5122 58.2071 24.7798C58.6431 24.921 59.0897 25.2224 59.252 25.622C59.8536 27.1061 58.8465 28.7712 58.551 30.3322C57.9998 33.2469 57.8566 36.312 56.552 39.0146C54.8393 42.5634 52.9781 46.8768 49.1265 48.4398C47.6152 49.0533 45.8561 47.9647 44.2062 47.9203C41.2313 47.8401 38.2576 48.1482 35.2919 48.3801C33.3532 48.5319 31.4271 49.1832 29.4931 48.9891C28.0049 48.84 26.6983 47.974 25.244 47.6473C23.6332 47.2849 21.9768 47.0987 20.325 46.9695C18.9628 46.8628 17.2566 46.0644 16.2237 46.8913C15.3477 47.5923 15.8573 49.0096 15.8016 50.079C15.7062 51.8951 15.891 53.7145 15.9487 55.5313C16.1183 60.8816 16.433 66.228 16.5337 71.5796C16.6199 76.1732 13.0294 82.1159 16.5496 85.3632C21.9649 90.3583 31.8585 85.4394 39.5119 85.3632C47.166 85.287 59.8059 91.5351 62.4702 84.9086C62.8193 84.0407 60.8362 83.7915 60.234 83.0514C59.0228 81.5639 58.3628 79.7485 57.5982 78.0265C57.3577 77.4851 57.2265 76.9067 56.9867 76.3654C54.9579 71.7856 52.5362 67.355 50.0091 62.9919C49.424 61.9822 48.723 61.0327 48.1181 60.0329C47.3097 58.6984 46.3649 57.4144 45.7958 55.9792C45.5645 55.3968 44.7476 54.4063 45.3644 54.1618C46.0926 53.8729 46.2973 55.3478 46.6982 55.9792C47.2011 56.771 47.5118 57.6615 48.0366 58.4407C48.5925 59.2663 49.0894 60.1972 49.9422 60.767C50.8665 61.3845 52.0392 61.8 53.1795 61.7894C53.8746 61.7814 54.4801 60.9247 55.1387 61.1294C58.8922 62.2949 60.1922 66.925 61.5724 70.3532C61.7089 70.6931 61.5213 71.1264 61.736 71.4298C61.9646 71.7525 62.5073 71.7631 62.8021 72.0354C63.246 72.4462 63.4435 73.0333 63.786 73.5189C64.5347 74.5817 65.4199 75.5623 66.1256 76.6503C67.951 79.4636 69.3291 82.5055 71.0028 85.3976C72.3525 87.7305 73.5696 90.143 75.1664 92.3388C76.3644 93.9859 77.9532 95.3654 79.2035 96.9788C80.7089 98.9215 82.2474 100.874 83.3632 103.029C84.2113 104.669 84.8778 106.409 85.2535 108.192C85.4629 109.185 85.2429 110.227 85.445 111.222C85.7531 112.734 86.3355 114.196 86.9855 115.612C87.5606 116.867 87.7574 118.582 89.0593 119.222C90.9748 120.164 93.4191 119.046 95.5334 118.595C96.6869 118.35 97.7444 117.811 98.8708 117.474C100.39 117.019 101.95 116.689 103.478 116.262C104.851 115.878 106.247 115.551 107.574 115.05C108.226 114.804 108.831 114.464 109.461 114.173C111.037 113.446 112.617 112.726 114.197 112.007C116.854 110.795 120.118 110.355 122.177 108.386C122.643 107.94 122.502 107.104 123.002 106.69C125.217 104.857 128.823 105.367 131.49 104.154C132.445 103.72 133.265 103.068 134.121 102.483C135.04 101.856 135.901 101.16 136.807 100.514C137.675 99.8954 138.554 99.2885 139.44 98.6916C140.298 98.1131 141.294 97.6858 142.038 96.9854C142.782 96.2871 143.314 95.4138 143.837 94.5617C144.511 93.4632 144.811 92.1831 145.546 91.1183C147.149 88.798 151.471 87.5834 151.345 84.8331C151.205 81.77 146.337 80.7602 144.269 78.3617C141.995 75.724 139.693 72.9491 138.501 69.7615C138.339 69.3295 138.802 68.5529 138.336 68.3979C136.302 67.7241 135.413 71.3689 133.686 72.5681C131.1 74.3644 128.487 77.2174 125.259 77.016C122.724 76.8577 121.303 74.0629 119.211 72.7318C118.387 72.207 117.596 70.9627 116.655 71.2768C115.949 71.512 116.687 73.2228 115.937 73.2466C115.286 73.2678 115.411 72.1448 115.187 71.5802C114.734 70.436 114.563 69.1936 113.99 68.0958C113.29 66.7507 112.194 65.6144 111.293 64.3747C109.993 62.5851 108.515 60.8969 107.388 59.0099C106.728 57.9053 105.429 56.779 105.73 55.5486C105.902 54.8449 106.828 54.4951 107.507 54.1379C108.758 53.48 110.199 52.5597 111.602 52.8645C113.842 53.3521 114.922 55.8129 116.471 57.3846C118.121 59.0569 119.327 61.1135 121.176 62.5977C121.942 63.2126 122.879 63.6207 123.764 64.0792C125.87 65.1705 127.829 66.8601 130.231 67.0959C131.969 67.2669 133.594 66.2061 135.305 65.8715C136.746 65.5892 138.358 64.5848 139.666 65.2122C140.583 65.6528 140.282 67.1185 141.015 67.7936C143.469 70.0524 147.083 70.9813 150.387 71.9407C152.539 72.5655 154.941 73.6481 157.067 72.9518C157.904 72.6775 158.217 71.7002 158.836 71.1125C160.273 69.7489 161.828 68.4953 163.345 67.2059C163.832 66.7912 164.683 66.5738 164.821 65.9749C164.92 65.5422 164.433 65.1672 164.238 64.7637C163.904 64.0726 163.643 63.3477 163.234 62.6925C162.513 61.5382 161.613 60.4828 160.7 59.4505C159.658 58.2711 157.737 57.5707 157.349 56.0905C156.803 54.0048 159.654 51.9912 159.206 49.8862C158.969 48.7731 157.568 48.1754 156.952 47.1935C156.26 46.0896 155.642 44.9076 155.372 43.6573C155.051 42.1718 155.585 40.6134 155.359 39.1134C155.306 38.7675 155.194 38.4282 155.051 38.1056C154.86 37.6789 154.35 37.3549 154.324 36.8944C154.301 36.4558 154.734 36.0993 154.885 35.6825C155.843 33.0355 157.496 30.315 157.056 27.554C156.886 26.4906 156.109 25.5312 155.279 24.7772C154.176 23.7754 152.575 23.3884 151.245 22.6596C149.993 21.9738 148.84 21.1277 147.531 20.5393C146.089 19.8913 144.548 19.4441 143.016 19.0061C141.476 18.5662 139.937 17.9944 138.329 17.9109C137.523 17.8685 136.694 17.9732 135.929 18.2124C134.754 18.5801 133.756 19.3202 132.695 19.9139C131.648 20.4996 130.549 21.0283 129.604 21.7479C129.282 21.9937 129.095 22.384 128.738 22.5847C126.365 23.9231 123.509 25.0078 120.739 24.7752C118.343 24.5738 116.471 22.7225 114.305 21.7572C113.817 21.5398 113.293 21.3894 112.829 21.133C111.59 20.4492 110.375 19.682 109.379 18.7186C108.683 18.0467 108.122 17.251 107.666 16.4221C107.221 15.6138 107.402 14.4788 106.689 13.8546C105.652 12.9469 103.979 12.9853 102.573 12.7468C99.756 12.2697 96.673 13.0874 94.0068 12.1193C92.6551 11.6284 91.5003 10.667 90.5925 9.62076C89.9028 8.825 89.6331 7.78476 89.1521 6.86775C88.683 5.97328 88.5339 4.85816 87.7421 4.18498C86.5548 3.17654 84.8387 2.65708 83.2287 2.57625C81.5517 2.4921 80.0139 3.50518 78.3594 3.77154C74.3137 4.42285 70.1726 5.09735 66.0838 4.74022C64.4413 4.59644 62.8048 4.16643 61.3186 3.50385C60.8674 3.30243 60.5275 2.93271 60.1001 2.69087C59.4674 2.33308 58.7876 2.05149 58.1197 1.75333C57.4843 1.46974 56.8628 1.14906 56.1929 0.94432C55.04 0.592492 53.5771 -0.46763 52.6309 0.236026C52.6322 0.238013 52.6322 0.238014 52.6322 0.241327ZM89.062 119.227C88.783 119.168 88.6187 119.872 88.8685 120C88.8685 120 88.8692 120 88.8692 119.999C89.0077 119.769 89.3403 119.287 89.062 119.227ZM51.4939 29.9864C50.8029 29.4802 49.7202 30.2063 48.9178 30.5449C47.4575 31.1611 44.3374 31.8111 45.0172 33.1541C45.9356 34.9676 49.5254 32.801 51.323 31.6819C51.8597 31.348 52.6276 30.8152 52.4712 30.2355C52.4275 30.0725 52.1552 30.0599 51.9796 30.0168C51.8226 29.9791 51.6046 30.0964 51.4939 29.9864Z" fill="#B8C2CC"/>
</g>
<defs>
<clipPath id="clip0_480_19661">
<rect width="180" height="120" fill="white"/>
</clipPath>
</defs>
</svg>
