<svg width="180" height="120" viewBox="0 0 180 120" fill="none" xmlns="http://www.w3.org/2000/svg">
<path d="M126.124 34.917C126.091 34.2493 126.067 33.3507 125.72 32.7406C124.822 31.0259 122.794 30.4241 121.607 28.9731C121.26 28.5692 121.112 28.0992 120.856 27.6705C120.592 27.2336 120.189 27.1759 119.694 27.1182C118.185 26.9451 116.767 26.6235 115.259 26.2773C114.36 26.0712 113.461 26.0465 112.53 26.0712C111.895 26.0712 111.079 26.2773 110.444 25.9805C109.949 25.7497 109.719 25.288 109.397 24.8758C109.109 24.4718 108.705 24.2658 108.35 23.9195C107.509 23.1363 106.784 22.9055 105.621 22.7324C104.632 22.584 103.676 21.8915 103.008 21.166C102.315 20.4405 102.142 19.0802 101.936 18.1239C101.672 17.0192 101.301 15.8898 100.922 14.8181C100.576 13.8617 100.139 12.9055 99.3311 12.2377C98.3748 11.4545 97.0145 11.133 95.8191 11.0753C94.9205 11.0176 94.0467 10.9021 93.1234 10.8115C92.1341 10.696 90.9469 10.6384 90.0813 10.0613C89.5619 9.71503 89.1827 8.95658 88.8364 8.47018C88.5726 8.09096 88.3995 7.66227 88.1687 7.28304C87.9955 7.05221 87.7894 6.70592 87.6163 6.47509C87.3855 6.24426 87.1217 6.24426 86.8661 6.07114C86.6105 5.89801 86.5446 5.63423 86.4044 5.32095C86.2561 4.99944 86.1406 4.59547 85.9428 4.33166C85.679 3.98541 85.275 3.81229 85.0689 3.45779C84.665 2.79002 84.5743 1.98211 83.5603 2.06455C83.0079 2.09752 82.604 2.35307 82.1093 2.55917C81.5322 2.79 80.8892 2.9384 80.2791 3.07855C79.6443 3.25167 79.092 3.51549 78.4819 3.19398C77.9873 2.93017 77.674 2.50148 77.1217 2.32011C76.66 2.14699 76.0747 1.9986 75.5553 1.91616C75.1761 1.82548 74.3104 2.17996 74.0219 1.85845C73.8488 1.71005 73.9642 1.33907 73.8735 1.13297C73.7251 0.902133 73.4366 0.753766 73.148 0.696058C72.6534 0.605373 72.134 0.844406 71.6394 0.959823C71.0623 1.13295 70.7655 1.51218 70.2461 1.74302C69.8092 1.91614 69.3145 1.97388 69.026 1.56992C69.3145 1.1907 70.1554 0.0612443 69.2568 0.00353596C68.1521 -0.0541723 67.0804 0.613587 65.984 0.613587C65.4893 0.613587 64.9699 0.4652 64.5083 0.671301C63.9312 0.902135 63.5767 1.51219 63.2304 2.00683C62.7688 2.64162 62.505 3.19398 62.2412 3.91946C62.0928 4.32341 61.9526 4.85102 61.7465 5.19727C61.5404 5.51879 61.1694 5.71666 60.9056 5.98047C60.7325 6.18657 60.6418 6.35969 60.4687 6.44213C60.411 6.47511 60.2956 6.49985 60.1472 6.49985C60.1142 6.49985 60.0565 6.49985 60.0318 6.49985C59.8586 6.73068 59.7432 7.07693 59.8586 7.43143C60.0647 8.09919 60.007 8.82464 59.8586 9.05548C59.8009 9.20387 59.6278 9.66555 59.4794 10.0448C59.7679 10.5641 60.0895 11.0918 60.2873 11.6689C60.378 11.8997 60.4605 12.1305 60.4934 12.3944C60.5511 12.6252 60.5511 12.889 60.5264 13.1445C60.4687 13.5485 60.2626 13.9277 60.2049 14.3317C60.1719 14.5955 60.2049 14.8263 60.1142 15.0572C59.9411 15.692 59.2733 16.1042 58.8694 16.5658C58.4077 17.0605 58.0614 17.6128 57.6245 18.1322C57.2453 18.6268 56.7506 18.9401 56.3219 19.3523C55.8603 19.7562 55.5717 20.3663 55.3656 20.9434C55.0194 22.0729 54.5577 23.5238 54.6731 24.7109C54.7886 25.6095 55.3079 26.335 55.1101 27.2913C54.9369 28.1899 53.7498 28.1652 53.3376 28.9401C52.843 29.8387 52.9007 30.828 53.453 31.6359C54.2032 32.7076 54.9617 33.7794 55.8273 34.7357C56.4374 35.4035 57.0144 36.2114 57.5421 36.9698C58.2923 38.0993 58.1769 39.4925 59.0507 40.5395C60.0647 41.8173 60.7325 43.2683 61.5734 44.6863C62.2659 45.8487 63.1398 46.9781 64.0961 47.9921C64.8463 48.7423 65.8685 49.3524 66.7919 49.847C67.8636 50.3994 68.7952 51.0341 69.6938 51.8173C70.5017 52.5098 71.491 53.6475 71.8125 54.6615C72.0763 55.4447 71.9856 56.2856 72.101 57.0935C72.2165 57.8767 72.2494 58.6022 72.2494 59.4101C72.2494 60.7704 72.3071 62.2213 72.5957 63.5816C72.8018 64.4802 72.9996 65.4695 73.0903 66.3681C73.181 67.2997 72.8265 68.1653 72.8018 69.0639C72.7111 70.284 72.6864 71.5865 73.1233 72.749C73.3541 73.326 73.6427 73.9114 73.8488 74.5214C74.0219 75.0408 74.0549 75.5931 74.1373 76.1455C74.3104 77.4233 74.5165 78.6105 74.5165 79.8883C74.5165 81.3063 74.6072 82.8149 74.4259 84.2412C74.3104 85.2881 74.0466 86.2115 74.0466 87.2585C74.0466 88.1901 74.3352 88.9403 74.6237 89.7812C74.8546 90.5314 75.0854 91.1744 75.1431 91.9576C75.1761 92.6253 75.1431 93.3755 75.2585 94.0186C75.4069 94.7688 75.6048 95.5273 76.0417 96.1621C76.594 96.97 77.7235 97.2915 78.3006 98.1076C79.6361 100.02 79.6938 102.312 79.7515 104.546C79.7845 105.997 80.7408 106.896 81.524 108.058C82.2165 109.072 82.6287 110.235 82.7111 111.446C82.8265 112.84 82.9749 113.854 84.1868 114.719C84.6814 115.066 85.3739 115.503 85.984 115.709C86.4209 115.824 86.9156 115.709 87.3773 115.618C90.1885 115.008 90.7655 117.819 92.6864 119.13C93.181 119.451 95.3575 120.606 95.5306 119.592C95.7367 118.429 93.7581 118.083 93.214 117.473C92.7194 116.921 92.6617 116.08 92.1423 115.503C91.59 114.925 90.9552 114.456 90.4358 113.854C89.6526 112.955 89.2486 111.677 89.8834 110.639C90.172 110.177 90.7573 109.649 90.8974 109.163C91.0706 108.611 90.8068 107.976 90.5512 107.481C90.205 106.789 89.6196 106.063 89.5372 105.247C89.4218 104.497 89.8257 103.887 90.2627 103.301C91.0706 102.254 92.4968 100.894 91.5982 99.4761C91.1942 98.7836 87.5998 97.5305 89.4795 96.5495C89.9411 96.3187 90.205 96.261 90.3204 95.7086C90.4111 95.1893 90.2874 94.6369 90.3781 94.1175C90.6996 92.6665 92.4638 93.2766 93.5356 93.3344C95.0689 93.3921 96.2313 92.378 97.2206 91.3063C98.2099 90.2593 98.4985 89.2206 98.0615 87.8273C97.8884 87.2173 97.7977 86.7226 97.773 86.0878C97.74 85.7086 97.5669 84.9831 97.773 84.6369C98.1192 83.9444 99.2816 84.5462 99.8917 84.5215C101.079 84.4885 101.689 83.6476 102.068 82.5182C102.736 80.6056 103 78.1653 104.558 76.6896C105.489 75.8158 106.503 75.1809 107.171 74.0762C107.921 72.7984 108.185 71.4629 108.045 70.0202C107.897 68.7753 107.353 66.8627 107.954 65.7003C108.531 64.5956 110.156 64.1917 111.227 63.8124C112.505 63.3755 113.865 63.1447 115.201 62.9138C116.273 62.7407 116.767 62.65 117.146 61.5535C117.435 60.7126 117.954 60.0201 118.309 59.237C118.597 58.6269 118.828 57.9921 119.117 57.382C119.842 55.7909 120.362 54.0762 120.477 52.312C120.625 49.6739 119.521 46.772 120.592 44.2246C120.996 43.2683 121.549 42.3367 122.101 41.4381C122.711 40.4818 123.379 39.7893 124.104 38.9484C124.772 38.1982 125.465 37.3573 125.877 36.4257C126.1 35.9311 126.157 35.4364 126.124 34.917Z" fill="#B8C2CC"/>
</svg>
